/* XPM */
static char *af102b3d558e4e2a9e52b8f896dcf36dPHxSPUd4L77maaUr[] = {
/* columns rows colors chars-per-pixel */
"50 50 191 2 ",
"   c #010101",
".  c #0A0303",
"X  c #020B01",
"o  c #0A0903",
"O  c #03020A",
"+  c #0A010B",
"@  c #05090C",
"#  c #080C0D",
"$  c #130201",
"%  c #180604",
"&  c #130A01",
"*  c #1A0900",
"=  c #10060F",
"-  c #1D1101",
";  c #010012",
":  c #0D0111",
">  c #1F1F15",
",  c #281707",
"<  c #231E00",
"1  c #22150A",
"2  c #211A0A",
"3  c #291909",
"4  c #271A04",
"5  c #221F16",
"6  c #2F2609",
"7  c #272204",
"8  c #332304",
"9  c #322805",
"0  c #33240A",
"q  c #3B2409",
"w  c #343101",
"e  c #3D360C",
"r  c #3F2C15",
"t  c #3D3510",
"y  c #402F15",
"u  c #422D18",
"i  c #5D4B1B",
"p  c #614B0F",
"a  c #614D10",
"s  c #694F16",
"d  c #66471C",
"f  c #614F1E",
"g  c #665213",
"h  c #6C521B",
"j  c #7D671E",
"k  c #7E681D",
"l  c #674F21",
"z  c #6D4E22",
"x  c #6D5320",
"c  c #806717",
"v  c #8B6616",
"b  c #826919",
"n  c #836620",
"m  c #8A6D26",
"M  c #8C7C24",
"N  c #8D7326",
"B  c #9F7B27",
"V  c #90742A",
"C  c #9D7C2B",
"Z  c #A27F2D",
"A  c #A17F37",
"S  c #9C8133",
"D  c #A98926",
"F  c #A2832E",
"G  c #AC872E",
"H  c #A68828",
"J  c #A88B2B",
"K  c #BA932C",
"L  c #BF992E",
"P  c #B69526",
"I  c #A4803B",
"U  c #AA9C33",
"Y  c #B19033",
"T  c #B6993C",
"R  c #B2A13A",
"E  c #BCA03D",
"W  c #C68400",
"Q  c #CB8703",
"!  c #C78900",
"~  c #CE8C00",
"^  c #CD870D",
"/  c #D38E01",
"(  c #DA8E01",
")  c #D58D0B",
"_  c #CE9102",
"`  c #CC920C",
"'  c #D59102",
"]  c #D99303",
"[  c #DB9904",
"{  c #D5950A",
"}  c #DA940A",
"|  c #D59B0E",
" . c #DA9A0D",
".. c #DF9511",
"X. c #D59B13",
"o. c #DC9D13",
"O. c #DF9F19",
"+. c #E09400",
"@. c #E09611",
"#. c #E19E12",
"$. c #DBA308",
"%. c #DEA115",
"&. c #DDA21B",
"*. c #E2A114",
"=. c #E3A51C",
"-. c #E5A91D",
";. c #EBAA1C",
":. c #E8A415",
">. c #C09525",
",. c #C99D35",
"<. c #C99D3B",
"1. c #C39C33",
"2. c #C1A63A",
"3. c #CAA13C",
"4. c #DDB738",
"5. c #DCBD3E",
"6. c #E6AA22",
"7. c #EBAC22",
"8. c #E7AD2A",
"9. c #ECAC2A",
"0. c #EDB125",
"q. c #ECB32B",
"w. c #F1B527",
"e. c #F2B62E",
"r. c #F3B92D",
"t. c #FABD2E",
"y. c #F3BA25",
"u. c #EEBF35",
"i. c #E4B63C",
"p. c #F5B432",
"a. c #F5BB33",
"s. c #F9BE35",
"d. c #F4B439",
"f. c #F5BB3A",
"g. c #F9BF3B",
"h. c #F9B435",
"j. c #EDC43F",
"k. c #ECC83D",
"l. c #F6C336",
"z. c #FBC335",
"x. c #F7CB37",
"c. c #FBCA36",
"v. c #F6C53D",
"b. c #FCC43D",
"n. c #F5CA3C",
"m. c #FDCB3D",
"M. c #FFD536",
"N. c #FDD43D",
"B. c #B59741",
"V. c #CAA441",
"C. c #DFB640",
"Z. c #DCBE46",
"A. c #E0B741",
"S. c #E7B846",
"D. c #E8B849",
"F. c #F5BE47",
"G. c #FCBF40",
"H. c #FFBD49",
"J. c #DFC043",
"K. c #DEC048",
"L. c #E7C546",
"P. c #F5C443",
"I. c #FCC642",
"U. c #F5CA43",
"Y. c #FAC941",
"T. c #FDC842",
"R. c #FFCC42",
"E. c #FFCE41",
"W. c #FFCA45",
"Q. c #FFCC45",
"!. c #FECA44",
"~. c #F5C549",
"^. c #FEC248",
"/. c #FFC649",
"(. c #FDC44A",
"). c #F5C949",
"_. c #FFCA4C",
"`. c #FECC4A",
"'. c #EED04A",
"]. c #FFD144",
"[. c #FFD243",
"{. c #FED941",
"}. c #FFD14A",
"|. c #FFD24C",
" X c #FFD34B",
".X c #FFD848",
"XX c #F6D144",
"oX c #FFC550",
"OX c #FECC52",
"+X c #FED152",
"@X c #FFD35B",
/* pixels */
"        O     O     O       @ O   o 0 h F ,.i.v.^.^.P.i.3.A l q     O @               @             ",
"O O     O       .       O + . 0 m T '.{.m.!.`./.m.m.c.c.m.N.U.k.<.k <         O O                   ",
"        O   o     O .     w J F.M.R./.^.^.!.R.x.v.!.W./.^./.`./._.|.Q.J u .   @       +     O       ",
"      O +         X   2 S ).[.R.(.^.m.R.!.P.Y.[.m.R.!./.W.W.b.n.m.l.Q.m.Y.A *     O O               ",
"O   O ; O     # @ + f 5.|.(./.v.P.b.x.m./.v.g.r.d.d.f.z.b.!.Y.Q.b.Y.P.Q.T.M.L.d   +   X O     O     ",
"          X @ O + V Q.m.z.).P.!.Q.W.f.9.O.} ' ) ' ' ~ ' ] o.7.h.Q.R.m.P.v.).oXm.M .                 ",
"          O O * P  Xc.z./.b.R.P.9.o./ ~ / / / ] ~ ' ] ' / / / / [ 8.Y.!.b.^.b.).[.T $ O O O         ",
"    +   X ; * R N.Y.).).Y./.p.[ / / / ' ' ' ) ) ( / ) / / _ ' ' / /  .q.!.!.v.W.H.N.R &   o + O     ",
"  O     O + K [.Y.v.T.W.a.*.' / / ' ' ~ ] ' / ' ' ' ~ ' ' ] ' / / ' ' ~ #.^.W.T.n.~.M.K :           ",
"    O X O V |.Y.n.!.!.a.| / ' / { ' ' / ~ ' / / ~ { ' ' ' / ~ ] ' ~ ' { ~ o.a.W.z.Y.(.+XN @ X .     ",
"O   .   f R.c.).W.W.w.{ / / / { ] ~ / ] ' ] ' { s.b.7.~ ' ' ' / / ] / / ' ~ { r.Q./.OXY.[.i   .     ",
"  O   2 4.c.x.`.Q.a.{ ~ [ ] ~ ' / ' ] / / ! ~ -.P.Q.s.| ~ / ] ] ' / ( ] / ' / { r.`.P.a.[.L.1       ",
"  +   S [.z./.T.s. ./ ] / / ' ' / ] / ~ o.-.9.z.W.T.T.a.7. .' ~ ' / ] / / ] ' ' | b./.m.P..XC       ",
"  = w )._.).v.^.*.~ / ] / / ' ' ' Q { 7.z.Q.W.!.W.v.T.W.W.T.s.-.{ ' / / ] / ~ ] _ &.W.Q.I.g.).y     ",
"O . H R._.).R.p.' ' / ~ ] ' ' ] ~ { e.Q.Q.P.v.T.b.!.!.T.P.W.W.T.w.~ / } / ( ' / ' ^ w.R.W.`.W.D o   ",
"  6 F.!.n.n.(.[ / / ' ' ' / / / / e.Q.Y.Y.W.T.W.!.!.b./.T.T.P.W.W.=./ / / / ' ' ] ( X.l./.b._.v.> o ",
"O n M.^.Y.!.9./ ' ' ' / ' ' / / &.!.b.Q.v./.s.w.!.m.T.v.W.W.Q.P.Q.o./ { / / ' ' ' } ! 7.`.P.b..Xv ; ",
"o T Q./.!.T. .' / ' / ' ' ' ' / 7.W.Y.W.W.e.' o.!.Q.g.X.=.a.R.!.q.{ / ' / / ' / / { / #.T.Y.Y.Q.1.. ",
"8 './.m.m.f.~ ] ' ' / ' / ' ' / a.W.W.P.!.=.! ;.Q.Q.s./ ~ ' o.%.] ' / ] ( ] / / ' ' / ) p.W.W.Y.).9 ",
"h N.^.!.m.8.~ ' ' ' ' ' ' ' ' / p.b.!.W.T.6.~ #.Y.P.z.} ] / / ' / ' / ( / / ' ' / ( / ~ 6.W.W.T.[.g ",
"F x.^.!.W.O.) ' / ' / ' ' ' ' / q.W.Y.Q.W.v.-.%.`.W.z.~ ] ] / ( ' ] / / / ' ' ' ' / ( / o.W.!.b.`.C ",
",.W.W.!.f. ./ ' ' ' ' / / ' / / &.}.Y.P.W.W.b.b.P.!.s.` ~ ~ ' ] ' ' / / ] ' / / ' ' ] ' { b.P./.`.V.",
"i._.m.!.s.{ / { / / ' / ' ' ' / ' r.Q.Y.I.P.b.W.Q.Q.Q.q.6.| / ~ / / ) ' ' ' ' ' ' / ' ' ' l.!.!.T.A.",
"v./.x.m.a.) ' / ' ' ' / ' ' ' ' / ..b.Q././.Q.W.b.!.`.Q.Q.z.7. ./ ' ' ' / / ] / _ / ] / _ p.Q.Y.m.j.",
"^.W.b.m.f./ / / ' / / ' / ' ' / ' ~ ] r.b.Q.R.P.!.T.!.T.W./.!.z.6.! ] ( / / / ' / ' ' / / e.!.Y.T.z.",
"P.!.T.n.f./ ( ] ' / ' ' ' / ' / / ' / ) ..r.b.!.W.b.!.T.v.v.!.!.z.*.~ / ] ] / / / / ] ~ ' r.T.W.!.b.",
"P.m.W.!.f./ ( ' / ' ' ' ' ' ' / ] / / { ' _ { ;.!.T.Q.!.Q.W.T.T.Q.s./ ' ' / ' / ' / / ' ' r.b.W.!.v.",
"i.c./.W.f.' / / ' ' ' ~ / ' ' ' / ] / ' ' _ / #.!.!.g.6.s.W.b.T.P./.o./ ' ~ ' ] ' / ' ' ' s.!./.`.D.",
"3.c.^./.T.[ / { ' ' / / ' ' / ' ] ' ~ / ' / / :.Q.W.s.` o.v.!.P.P.!.=.~ ' ' ] / / ' ' / | b.W.b.W.<.",
"I N./.T.T.o./ ) ' ' / ' ' / ~ / ' =.-.{ ~ { ) #.W.b.b.{ ! q.Q.T.!.!.7.~ ] ' / / / ' ' ~ *.b.T.P.[.B ",
"z XX`.T.Q.7.~ / ' ' ' / ] ' /  .W.!.!.a.=.{ ! *.Q.P.z.' ~ q.Q.W.!.!.=.~ ' ' / ' / ' ' ~ 7.!.!.P.[.s ",
"q k.`.P.Q.p.' ' / ' / / ' / ] :.W.P.W.W.T.g.=.7.W.Q.z. .7.!.b.Y.n.m. .' ' _ ' ' ' ' ' ~ e.!.T.(.P.q ",
"  ,.+Xm.!.Y. ./ / / / ' ' ~ ' #.Q.Q.P.Y.I.Y.Q.!.b.b.T.T.Q.Q.P.T.R.r.' / ] ( ' ' ( X._ ..c.R.I.}.2.. ",
"  b  Xs.W.m.q.' ' / / ' ' ' / ] p.b.Q.Q.!.P.b.b.!.!.b./.P.b.!.!.z.o./ ' / / / ' ] Q ~ 7.T.R.P.[.k . ",
"O 7 k.Q.).Q.Y.} / ' ' / / ) { / ' =.a.!.R.W.!.!.Y.W.v.!.Q.!.Q.l.*.Q { ' / ' ' ' _ (  .W._.z.).P.8 O ",
"    J R.Q.b.!.p./ ' ] ' ~ / ] / / / / o.e.z.b.T.Y.b.!.!.b.a.6.' / / ] ' ' ' / / _ ' r.P.Q.b.[.G   @ ",
"O   u Y.P.x.b.W.o.' / ' ' ' ' / / / ' / _ ` %.p.`.W.b.-.} { / / / ( / ' ] ' / ' ) $.Q.U.b.^.n.t O X ",
"      I N._.T.!.z.%.Q / ] / / ' ] / ] / ] _ ~ =.!.b.T. ./ / ~ ] ' / ~ ' ' ~ } ~ @.P.Y.Q.(. XZ   O   ",
"  O   4 K.(.b.P.Q.p.| / / / / ' / / ] / ' ' / ;.Q.W.z.} ( ] / ' ' ' ' ' / / ' ' s._.x.z.OXZ.3       ",
"  @     d [.U.`.P.Q.r.} / ] ' / ' / ( / ] ] ~ } u.l.9.~ ) / / / ' ' ' ) ] / ' t.Y.m./.^.[.a         ",
"  O       M N.H.R.v.Q.a.X._ ' ] ' ~ ' ' ' ' / _ / ' ' ' / / ' ] / ' ~ { )  .p.].!.b.).+XB   O       ",
"O     O + . B.{.P.!.b.!.z.&.Q / ' ] ] ] / ~ ' ] / / / ' ' ' ' / ` ' +./ $.Y.+Xm.P.Y.N.Y O   .       ",
"      O     * U M.~.OXb.W.!.y.X./ ~ / / ' ] / / ] ' ~ ' / ' ' ' _ ' { 0.`.Y.x.^.n.}.L o X   O       ",
"O   O   X   O & K @XP.g.!.Q.P.x.;.o.) ~ ' ' ] ' / ' ] ] ' ~ ~ / @.7.W.OXQ.!.z.W.@XP : X   O         ",
"          O     : m [.R.P.^.`.^.}.b.p.6.o.{ _ ' ~ / ~ ~ { O.9.p.m.T.^.b.b.(.OXm.B O X   O O         ",
"        O   + o   O i L.N.b.W.z.b.!.[.Q./.z.g.a.a.a.a.g.b.T.!.T.m.[.b.T.^.[.Z.a           o   O     ",
"    O         O X X   - F ).Q.`.n.P.P.T.T.!.!.T.T.T./.!.!.W.`.Y.U.P.).N.U.Z ,   O +   O     X O     ",
"        O     O   . +     t H I. X[.!.m.P.b.!./.Y.Y.W.m.b.^.P.I.W.[.Y.G t     . O         O O       ",
"                        O   o 5 v 1.U.Q.Q.Q.!.m.!.!.!.W.!.N.}.P.2.k 8   O @                         ",
"                              o ; . 9 g C V.i.L.b.b.v.S.<.B s q . . . O                             "
};
