/* XPM */
static char *edc23d242ab9417792e45770cd2cac6ajPxm8qd6oROT70DA[] = {
/* columns rows colors chars-per-pixel */
"50 50 224 2 ",
"   c #010001",
".  c #0A0401",
"X  c #020B05",
"o  c #0F0A03",
"O  c #0C0A06",
"+  c #01020A",
"@  c #01020E",
"#  c #0B020A",
"$  c #030A0B",
"%  c #0B0B0A",
"&  c #130D0E",
"*  c #12100B",
"=  c #15100B",
"-  c #19130D",
";  c #060A12",
":  c #030F15",
">  c #0B0E11",
",  c #07101C",
"<  c #121312",
"1  c #151110",
"2  c #1C1612",
"3  c #1F1A15",
"4  c #1E1E1E",
"5  c #291F16",
"6  c #201B19",
"7  c #271F1C",
"8  c #2B201A",
"9  c #342A1F",
"0  c #081527",
"q  c #101624",
"w  c #0A1837",
"e  c #1F2229",
"r  c #2B2821",
"t  c #2A2928",
"y  c #2E2A29",
"u  c #342E27",
"i  c #3E2F26",
"p  c #3B322A",
"a  c #39342E",
"s  c #373736",
"d  c #42352A",
"f  c #423A2E",
"g  c #443934",
"h  c #494136",
"j  c #50433A",
"k  c #564538",
"l  c #53493A",
"z  c #5F4E3E",
"x  c #0C1D42",
"c  c #0F1D43",
"v  c #102240",
"b  c #0D2857",
"n  c #122957",
"m  c #2A3959",
"M  c #373E5C",
"N  c #122A64",
"B  c #10346B",
"V  c #142A70",
"C  c #153371",
"Z  c #213B78",
"A  c #3D5B7F",
"S  c #454843",
"D  c #504643",
"F  c #574C42",
"G  c #5F5042",
"H  c #5A5047",
"J  c #575555",
"K  c #665346",
"L  c #66584A",
"P  c #6D5949",
"I  c #765F4B",
"U  c #695F57",
"Y  c #706155",
"T  c #786250",
"R  c #72695F",
"E  c #78695B",
"W  c #7D6B5D",
"Q  c #646464",
"!  c #736660",
"~  c #706C69",
"^  c #767573",
"/  c #826B56",
"(  c #856F5A",
")  c #827061",
"_  c #867665",
"`  c #8C7761",
"'  c #907861",
"]  c #917866",
"[  c #997F6A",
"{  c #837A73",
"}  c #97826B",
"|  c #94816F",
" . c #848179",
".. c #9A8672",
"X. c #9E8770",
"o. c #AD846A",
"O. c #AF9264",
"+. c #A78D73",
"@. c #A78A78",
"#. c #AD927A",
"$. c #B59776",
"%. c #C59C79",
"&. c #0B3980",
"*. c #143785",
"=. c #123C83",
"-. c #143D89",
";. c #1A388B",
":. c #1B3F8B",
">. c #143F96",
",. c #143899",
"<. c #163B9F",
"1. c #194B99",
"2. c #2A5098",
"3. c #1745A6",
"4. c #1546A6",
"5. c #1E46AE",
"6. c #1B4AAD",
"7. c #1850AA",
"8. c #1544BC",
"9. c #184FBE",
"0. c #1F4DBE",
"q. c #777C81",
"w. c #144AC9",
"e. c #1F4ECB",
"r. c #1D51C6",
"t. c #195AD0",
"y. c #1D5BD1",
"u. c #1959DB",
"i. c #274ECD",
"p. c #2252D2",
"a. c #2653DC",
"s. c #1F5BF5",
"d. c #205CE1",
"f. c #245AE9",
"g. c #295BF2",
"h. c #285EFC",
"j. c #1E64E4",
"k. c #1E62F1",
"l. c #1860FA",
"z. c #1E63FC",
"x. c #2262E7",
"c. c #2262F0",
"v. c #2763F0",
"b. c #246BF0",
"n. c #2262FD",
"m. c #2169F8",
"M. c #818281",
"N. c #8A8781",
"B. c #898A88",
"V. c #8D8F8E",
"C. c #969A9B",
"Z. c #AB9582",
"A. c #B69C83",
"S. c #B69D87",
"D. c #BC9E85",
"F. c #A69C94",
"G. c #BBA282",
"H. c #B9A28C",
"J. c #ADA59C",
"K. c #BFA791",
"L. c #BEAC93",
"P. c #989DA2",
"I. c #A4A3A4",
"U. c #A6ACA9",
"Y. c #ADADA8",
"T. c #B7B1AE",
"R. c #ADAEB3",
"E. c #ADB0B0",
"W. c #AEB4BB",
"Q. c #B5B5B6",
"!. c #BBB6B0",
"~. c #BCBBBA",
"^. c #BFBEBE",
"/. c #C1A58C",
"(. c #CCA988",
"). c #C7AB92",
"_. c #D2AF93",
"`. c #DAB290",
"'. c #DBB895",
"]. c #D1B898",
"[. c #D4B89B",
"{. c #DBB99B",
"}. c #E0BB98",
"|. c #E4BB9A",
" X c #CBB5A2",
".X c #E8C19B",
"XX c #EEC39E",
"oX c #E8D09B",
"OX c #DEC0A4",
"+X c #E4C1A5",
"@X c #E8C7A4",
"#X c #EDC4A4",
"$X c #E8C9AD",
"%X c #EECAAD",
"&X c #F0C9A6",
"*X c #F9CDA6",
"=X c #F6CDAB",
"-X c #F1D2A7",
";X c #FDD3A7",
":X c #F3D2AE",
">X c #FDD4AE",
",X c #F8CBB5",
"<X c #F0D2B4",
"1X c #FCD5B5",
"2X c #FEDCB1",
"3X c #FEDDB9",
"4X c #FEDCBE",
"5X c #C7CAC9",
"6X c #CBCECE",
"7X c #D0C8C4",
"8X c #D4D1D4",
"9X c #D5D5DB",
"0X c #DDDFDF",
"qX c #E5E6E6",
"wX c #E0EAED",
"eX c #EFEAEB",
"rX c #EDEFEC",
"tX c #E8E8F0",
"yX c #EBF0F0",
"uX c #FAF9F2",
"iX c #F4F5F9",
"pX c #FFFEF9",
"aX c #FBFEFE",
"sX c #FEFFFF",
/* pixels */
"                                X       .     # +               +                                   ",
"                                      + @ + $ 0 : , ; ; $ @     .         +                         ",
"                                  + @   X v n 0.p.r.5.*.N c 0 : + +       .                         ",
"                                  . . + V a.0.&.0.f.n.j.j.d.3.B c , . .   +                         ",
"                                  +   v y.m.s.a.1.=.3.a.n.k.k.z.t.,.c ;   + %                       ",
"                                    , 9.l.m.h.k.s.d.3.=.=.5.i.g.s.h.d.*.0     .                     ",
"                                    w c.z.c.c.z.k.y.t.y.r.>.-.=.1.1.w.p.V 0 X                       ",
"                                  . V c.x.c.c.c.z.n.p.<.<.i.f.u.r.8.7.C 0 +   +                     ",
"                                    B z.n.g.z.c.n.c.z.k.5.B b <.e.u.f.V X   +                       ",
"                                + + N v.s.c.k.v.j.x.x.n.s.x.6.*.N b v :     .             +         ",
"                                X   c p.z.z.k.j.n.k.b.p.e.3.>.*.=.3.N         .         +           ",
"                                    e A 2.5.a.n.s.m.s.h.v.y.j.s.d.n.=.$     + $ .                   ",
"                                  8 Z.-XG.R M Z 7.u.n.s.k.k.h.g.s.i.b , # .   +                     ",
"                                = @.,XX.d a ) ..H m ;.0.9.9.8.e.:.C C w.>.c : O + +                 ",
"                                K >X' O   $ * O.>XL.m 5.8.5.1.>.9.r.g.n.k.k.e.-.q >                 ",
"                              % _ /.3 + .   @ g &X;XZ.m e.z.n.n.n.l.x.v.z.d.;.w : $     .           ",
"                + . .           = e .     X   3 (.1X+X_ m 3.z.m.x.m.l.n.i.c e 9     .               ",
"                      +   5 9     .   > ~ Q   + @.<X|.o.(.Q Z r.k.n.f.-.0 l _.`.p   +     +         ",
"                .     % F _.].a .     Q sX8X4 . z ;X*X` %X;XE q b C n @ u [.3X1X_ .   .             ",
"                      h {.>X>X).y   t qXsXiXS   4 /.;X$.$XH.5   + t S   I {.2X>XS.=   .   +   .     ",
"                .   = L.>X;X&X{.8   J aXsXsXI.%   y @.o.` r + + 2 Y.B.  L $.>X1X/.=                 ",
"                    k 1X;X>X$._.< . { sXsXiXiXs     X = O     7 I.aXC.  g [ +X2X| .       + +       ",
"                .   | 1X>X$X[ %.q   M.sXsX0XI.P.q .     . % y  .iXaXU.> g [ D.oXh                   ",
"                  % #.>X>XZ.) '.8   Q aXsXQ & C.S % +   X q.J < J.pXU.% g [.' K %   +   .           ",
"                  % [ >X<XK $.-Xp   4 Q.uXB.t ^ 8       . N.M.4 !.sXq.  G >X+.2                     ",
"                    i #.Y - D.4XT .   t M.P.Q 4         $ e P.6XwXR.6   ` >X>X_ .   +         +     ",
"                      O + - $.1X{.u     + ;   .   . o .     < s s > . 9 [.<X>X.Xf             +     ",
"                        + 6 ] ) ].L.f *     . 3 l Y W { E j 2 .     7 #.)._ ).*XZ.*                 ",
"                +         j A.a K  X$XX.T k Y F.) a 8 8 d ` H.T G )  X@.L g K.2X<Xd .     .         ",
"                      .   T G.^ Q z &X3X&X'.:XI           o ..3X&X1X).p Q.) L.>X1X` O               ",
"                .       . ' A. .V.T `.>X>X;X3XI         . o @.:X>X;X} g 0X{ S.>X>X).-               ",
"                        > D.$.B.Q.T .X>X1X1X;X$XL =   @ 3 ) %X>X;X;X] Q iXN.#.1X;X+Xp               ",
"                      + = /.D.M.eX! A.:X>X;X%X[.%XD./ ' /.<X&X.X2X+Xj F.aXB.S.>X1X+Xf               ",
"                        3 `.}.^ pX~.G ].1X1X=X(.1X#X3X1X+X(.=X&XOXP R uXaX ./.2X>X{.d       X       ",
"                        6 _.&X! qXuXM.h @.,X3X>X&X%.*X>X&X|.3X(.H D ^.aXsXR ].;X>X<XG .     .       ",
"                    .   2 _.1X_ C.E.~.^.! G X.].$X{.1X+X+XS.Y h M.8XR.~.8XE .X2X>X<Xl               ",
"                        = L.>XX.) wXaXaXrX .H D H U G H l H Q I.sXiXaX6X^ W 3X=XXX%Xf               ",
"                . +       ..1X[.! eXsXsXrXY.tXtX6XI.^ Q.8XyXwXW.uXaXiXsX) Z._.+X(.).3       %       ",
"                .     .   L 1X>XE F.sXsX^.^.sXaXsXyXW.uXsXsXiXU.qXpXsX7XL <X-X}.4XX.o               ",
"                          9 _./.K.F 8XiXI.uXpXpXsXqXE.sXsXpXpX7X5XaXtXU | 1X&X(.$Xk       %         ",
"                      + + % | |.$X] D B.6XaXaXsXaXqXT.pXpXuXaXeXE.5XJ K +X>X;X>XJ.-                 ",
"                            d {.).:X} a ^ 9XsXaXaX0XQ.sXsXaXsXqXQ a K +X3X1X3X.Xh .     +           ",
"                        +   o E >X>X1XK.z g Q Y.9X^.W.wX8XQ.^ s u | .X3X*X1X%X/ o                   ",
"                    .         6 $.1X1X>X>XA.P f p 9 y g t u k _ {.1X3X*X2X1X] 1                     ",
"                                8 S.1X;X>X4X(.[.).A.X.Z.K.).(.4X2X;X>X>X&X( 1 +       +             ",
"                      .           8 #.<X>X{.'..X.X:X:X@X1X;X'.*X>X*X>X].F O           +             ",
"                  .               . & Y  X@X&X&X&X;X*X=X2X1X1X3X<X$X| 8                             ",
"                    +           +   . . 8 ) D.&X>X>X2X>X&X&X+XD.` i % +                 .           ",
"                                      .     < s G W W W L j p 2                                     ",
"                                +               . .                                                 "
};
