/* XPM */
static char *cf8b74b9c2734b0be4368e1ce4b7c27bKbs3Y9borVW2qzbb[] = {
/* columns rows colors chars-per-pixel */
"50 50 232 2 ",
"   c #010001",
".  c #090301",
"X  c #010B04",
"o  c #0D0A05",
"O  c #01020A",
"+  c #0B0209",
"@  c #02090C",
"#  c #0C0B09",
"$  c #120A02",
"%  c #120A05",
"&  c #1C140C",
"*  c #17130C",
"=  c #010211",
"-  c #050B17",
";  c #02131C",
":  c #0B1116",
">  c #1B1513",
",  c #171817",
"<  c #190F10",
"1  c #251D17",
"2  c #22180F",
"3  c #29231C",
"4  c #37291D",
"5  c #051526",
"6  c #061C34",
"7  c #131D30",
"8  c #2B2421",
"9  c #282828",
"0  c #392B22",
"q  c #342A25",
"w  c #39352C",
"e  c #3D3836",
"r  c #373635",
"t  c #292E36",
"y  c #443729",
"u  c #4A3F35",
"i  c #443C34",
"p  c #503E32",
"a  c #4C4137",
"s  c #4A433C",
"d  c #544A3C",
"f  c #544538",
"g  c #092147",
"h  c #0C2954",
"j  c #122955",
"k  c #132F51",
"l  c #15386A",
"z  c #163A77",
"x  c #0E376A",
"c  c #12467E",
"v  c #374B6C",
"b  c #474746",
"n  c #564A44",
"m  c #5C5246",
"M  c #575A55",
"N  c #63554B",
"B  c #665B4B",
"V  c #695748",
"C  c #6A5E53",
"Z  c #635855",
"A  c #6F5448",
"S  c #73614F",
"D  c #6D6359",
"F  c #736354",
"G  c #7A6B5C",
"H  c #7A6658",
"J  c #6A6868",
"K  c #7D726A",
"L  c #777777",
"P  c #78686B",
"I  c #47506F",
"U  c #816C5B",
"Y  c #89725D",
"T  c #8B7563",
"R  c #8B7C6E",
"E  c #837468",
"W  c #957E69",
"Q  c #857C72",
"!  c #837F7C",
"~  c #867973",
"^  c #907E70",
"/  c #958374",
"(  c #9E8A74",
")  c #988978",
"_  c #98826D",
"`  c #A28B74",
"'  c #A38B79",
"]  c #AA917D",
"[  c #A8947E",
"{  c #BC967D",
"}  c #BDA277",
"|  c #193B83",
" . c #1A4584",
".. c #084D93",
"X. c #184B97",
"o. c #145095",
"O. c #17519B",
"+. c #224C9D",
"@. c #23549D",
"#. c #2B4E8B",
"$. c #1C51AF",
"%. c #1854A7",
"&. c #1C5BB5",
"*. c #185CB5",
"=. c #194EAA",
"-. c #275DBC",
";. c #1C66B9",
":. c #1E60AA",
">. c #2161BB",
",. c #3665A9",
"<. c #4D6F92",
"1. c #195CC8",
"2. c #1C67CA",
"3. c #1D72D9",
"4. c #1763D3",
"5. c #2765CA",
"6. c #2469D1",
"7. c #2C6BDB",
"8. c #2867D5",
"9. c #2473DA",
"0. c #3267D7",
"q. c #1C7AFB",
"w. c #1E72E2",
"e. c #316CE3",
"r. c #2E74EE",
"t. c #247CEA",
"y. c #2B7BEC",
"u. c #2875E7",
"i. c #247BF4",
"p. c #2B7BF3",
"a. c #247DFD",
"s. c #2B7CFE",
"d. c #2775F7",
"f. c #327CF3",
"g. c #3379FD",
"h. c #3575F5",
"j. c #2E6DEC",
"k. c #2882FA",
"l. c #2D83F3",
"z. c #898886",
"x. c #958D86",
"c. c #96938C",
"v. c #939493",
"b. c #9B9C9A",
"n. c #9C9993",
"m. c #8A8F93",
"M. c #A59382",
"N. c #AE9983",
"B. c #AB9885",
"V. c #B69C8B",
"C. c #B69E86",
"Z. c #AC938C",
"A. c #9EA09F",
"S. c #BCA38D",
"D. c #BAA694",
"F. c #A7AAAB",
"G. c #B5ACA5",
"H. c #BBB4AC",
"J. c #B3B2B3",
"K. c #BBBBB7",
"L. c #BBBEBE",
"P. c #B5BAB8",
"I. c #A8ADB1",
"U. c #C3A789",
"Y. c #C3AC95",
"T. c #C9AE97",
"R. c #C3AD99",
"E. c #C6B19D",
"W. c #CDB49D",
"Q. c #C8B194",
"!. c #D6B79A",
"~. c #D0AC8C",
"^. c #CBB6A2",
"/. c #CABAA4",
"(. c #D2B9A3",
"). c #DBBDA4",
"_. c #D8BCA6",
"`. c #C4BFBC",
"'. c #E2BFA1",
"]. c #DDC4AB",
"[. c #DAC4A8",
"{. c #C7C3BE",
"}. c #D5C2B1",
"|. c #E3C4A6",
" X c #E3C5AB",
".X c #EAC7AA",
"XX c #EDCCAB",
"oX c #E7C7A8",
"OX c #EDD8AB",
"+X c #EACCB4",
"@X c #E5CBB3",
"#X c #F1CFB3",
"$X c #EDD1B3",
"%X c #EDD3BB",
"&X c #F4D3B5",
"*X c #FBD6B5",
"=X c #FEDBB6",
"-X c #F2D4BB",
";X c #F9D6B9",
":X c #F6DABC",
">X c #FEDCBC",
",X c #F4DAB6",
"<X c #F2CEAE",
"1X c #FFE2BE",
"2X c #BBBCC0",
"3X c #BCC1C7",
"4X c #C2C2C3",
"5X c #CBCACA",
"6X c #C8C7C6",
"7X c #D9D2CF",
"8X c #DCDADC",
"9X c #D5D7D7",
"0X c #D1D4D3",
"qX c #F4DAC1",
"wX c #FDDDC2",
"eX c #FAD5C2",
"rX c #FFE3C5",
"tX c #FFE3CA",
"yX c #DDDDE2",
"uX c #EAEBEB",
"iX c #E4E5E5",
"pX c #F2EEEF",
"aX c #EDEDF3",
"sX c #E6EEF1",
"dX c #EFF3F3",
"fX c #FBFAF5",
"gX c #FFFEFA",
"hX c #FEFFFF",
"jX c #FDFEFE",
"kX c #FCFEFE",
"lX c #F6F7FA",
"zX c #F1F2F0",
/* pixels */
"                                                . .               O                                 ",
"                                    1 a N G ^ ^ ^ F b ,     .                                       ",
"          .                 O # p ( T.+X&X&X>X1X>X>X&XT./ 0 . .   O           O                     ",
"                            0 M.%XqXrXwXwX1X;X*X=X&X&X&X$X}.E < .               .                   ",
"            O           o C [.>X*X>X*X|.=XwX$X:X:XXXXX|.oX>XqXS.q           .                       ",
"            O       O > _ &X>X>X=X1XtX!.(.^.D.N.Y.(.].!.tX>X=XwXR.0                                 ",
"                    > ' wX1X*XrXwX X) V i r n e y a d U Y.>X>XwXwXU.3         .                     ",
"                  $ W -XwX*XrXXXM.i b z.4X8XsX3X5XyXK.L n S ^.wX>X>XR $   O                         ",
"          O     . m XXrXwXrX+XH s L uXhXkXhXhX4XiXkXkXhXyXz.s [ :X(. Xf                             ",
"                2 H.>X=X>X+XH J 0XL.aXhXfXgXgX`.uXkXhXkXkX9Xb.Z ' %X.XM.# O O                       ",
"        #       V %X!.&XwXM.K aXkX0X7XgXgXhXkXL.uXhXgXgXfXJ.lX8XC ^.W.).y                           ",
"              $ N.tXoX,XqXG 7XhXgXuXP.lXhXhXfX3XdXhXkXhX5X5XhXhXG.R >XwXG   .     .                 ",
"      #       3 (.!.+X).D./ hXlXkXfX3XsXdX8X4Xz.J.9XaXaXK.zXhXhXpX~ ].wXB.      O .                 ",
"              d -X<X;XrX^ z.9XkXlXhXJ.L D B D F K D Z D c.zXkXkXsX/ N.>X^.>                         ",
"              B qX>X1XXXR 8X6X2X8Xv.m E R.+X+XwX@X%X].N.F ~ 5X6XL.F.) >X).1   .                     ",
"      .     . F qX>X=X[.Q hXkX5XZ D !.rX.X&X>X*X~.&X=XrXeXV.m v.fXuX~ &X).8                         ",
"      X       f  X>X1XW.c.kXfXQ U @X&X;X!.+XwXrX#XwX!.;XwXwX[.F 6XgXz.oX'.3                         ",
"              d +XwX>XR.b.kXG.N +X1XXX&XqXW.` W T.-X].-X=X>X:XY.~ pXv.T.W.> O                       ",
"              u +X=XwXS.n.lXL ' =X=X>X-X/ 3 O   & G %X*XwXwX>XXXT 4Xb.U.T.:                         ",
"              2 (.>X>XR.x.iXn [ =X>X:XV.% .         Y rX=X>X>X'.T A.v.Y.` .       .                 ",
"              o ( wX>X/./ 4Xa (.wX&XrXB.$           Y :X|.&XrX&XS L z.Q.T   .                       ",
"        .     . f qX1X^.n G V.}./ F T E.( f 4 w a / G.E V T N.%X}.H s Y.N         O                 ",
"                * D.*X(.) (.S.q     . 1 N R x.^ E B 8 .     * d /.[./ ' 3 O                         ",
"    O             d XX>XqX].y . : b b ,     . $ .   .   - O     y  XwXU.2 O %                       ",
"    O         O   . ) >X>X(   9 2XaX9XI.t @         9 L I.v.r   . T tXT.2 E S.p                     ",
"                    1 C.>XS   m.hX{.9 v.n..       9 z.r b.fX4X9   a ,XU.H qX>X] #                   ",
"          .   O   # H ` [.d o P.gXH., J m.X   O # M F.< L hXkXL   9 |./ D.>X>XS.#                   ",
"                  m OXT.Z.n # P.kXlXc.e # .       9 I.J.iXhXhXv.  8 ~.] %X>X>XM.  .                 ",
"      O O       . M.1X+XZ.n   F.kXJ.q     o > X     b lXlXhXhXx.. , ).U.>X=XwXB                     ",
"                & W.wX=XU.G   b.K.1 O O w ( { V.e   # J.hXhXkXJ   q  X&X=X>X^.>   .                 ",
"    .   O   .   & R.>X1X XT   M r O   4 E.%XU.=XW.8   M lXhXuXr   e (.>X>X Xm                       ",
"            .   . ) wXrX[.y = l  .x 7 R =X-X` ;X=XS . 9 8XhXL     . s [.).C #     .                 ",
"        O     O   a '.).B 6 O.r.s.i.6.#.L !.{ .XqXV.O   L ! :   .     y 4   O                       ",
"              .     y t j 0.s.q.k.y.k.a.&.v ) +XwX!.3   X     . t >           . . O                 ",
"          .     @ ; g +.u.a.f.y.q.s.s.s.a.8.v D.=X&Xn O   . O 8 W.) #                               ",
"                : 7 O.8.i.i.s.h.6.2.%.:.-.1.-.v /.>X} > @   o ` >XH                                 ",
"                O O o ; h %.2... .@.8.1.2.2.5.+.v D B./ s f N.eXV.&                                 ",
"                    O   . + 5 x 0.d.h.g.i.i.d.s.w.;.#.I Q Q.,XD.4                                   ",
"                  . @ O     @ X.s.u.d.t.9.f.g.d.k.d.s.e.-.,.<.t                                     ",
"          O         .         z *.o.X.%.&.6.7.l.i.s.t.i.a.a.7.h   X                                 ",
"        O             .     - k x z X.>.y.d.s.y.y.t.f.i.p.d.f.z O O                                 ",
"                      O   X | r.w.8.$.x c -.i.a.p.s.p.a.h.s.a.c                                     ",
"                    O   O 6  .;.1.6.w.r.0.$.$.7.s.a.p.p.p.y.p.| .                                   ",
"                      X 6 | 7.4.*.@.o.O.%.6.9.3.9.p.a.p.p.a.p.g                                     ",
"                    .     6 X.u.s.d.h.0.-.o.o.*.u.s.i.g.k.q.2.5                                     ",
"                      # O   - j =.9.a.i.i.s.e.*.o.%.e.d.k.9.k   O                                   ",
"                        O   . . 5 j c &.u.t.t.s.r.5...5.e.| O . .                                   ",
"                        .       O O ; 6 j z X.-.6.7.5.l k X   = O                                   ",
"                        O         .     = @ - - 5 ; 6 @ O = O                                       ",
"                                  O               O +     .       X                                 "
};
