/* XPM */
static char *_f2e772a5eb64e73d541acdff728cc37EnHPqaeOJDsollLW[] = {
/* columns rows colors chars-per-pixel */
"50 50 248 2 ",
"   c #52584C",
".  c #555A56",
"X  c #595C58",
"o  c #4E534D",
"O  c #5C635C",
"+  c #586456",
"@  c #586A51",
"#  c #61665D",
"$  c #6E7A58",
"%  c #5C6761",
"&  c #626562",
"*  c #656B64",
"=  c #6A6D69",
"-  c #666A68",
";  c #6D726D",
":  c #697569",
">  c #71746F",
",  c #71796B",
"<  c #767976",
"1  c #6E6E71",
"2  c #817964",
"3  c #76897A",
"4  c #6E8070",
"5  c #78855A",
"6  c #889757",
"7  c #8F8554",
"8  c #9BB559",
"9  c #9ABC4E",
"0  c #8C956D",
"q  c #A49775",
"w  c #87A47C",
"e  c #9DB176",
"r  c #97A96B",
"t  c #A3BB66",
"y  c #A1B47C",
"u  c #ADA776",
"i  c #A9C959",
"p  c #B3D35E",
"a  c #AAC768",
"s  c #B2CB69",
"d  c #AED169",
"f  c #BCDC6C",
"g  c #B7D767",
"h  c #A5C474",
"j  c #B5CD78",
"k  c #BAD876",
"l  c #BEE269",
"z  c #BCE178",
"x  c #9EC576",
"c  c #C2DD77",
"v  c #C3E56D",
"b  c #C8EC6E",
"n  c #C3E574",
"m  c #C3E976",
"M  c #C3E57C",
"N  c #C4EA7D",
"B  c #C9EA7B",
"V  c #C9E977",
"C  c #CEF176",
"Z  c #797F82",
"A  c #7E8284",
"S  c #868889",
"D  c #898E91",
"F  c #8C9296",
"G  c #949A9C",
"H  c #9B9D9C",
"J  c #939596",
"K  c #959487",
"L  c #8CA693",
"P  c #96A694",
"I  c #97B799",
"U  c #95A787",
"Y  c #A9A387",
"T  c #B3AA8C",
"R  c #B9B28A",
"E  c #A5A499",
"W  c #B7AE96",
"Q  c #BBB597",
"!  c #AAB890",
"~  c #979DA1",
"^  c #A39FA0",
"/  c #9CA1A3",
"(  c #9CA7A7",
")  c #9CBFA1",
"_  c #A3A5A4",
"`  c #A3AAAC",
"'  c #ACACAC",
"]  c #A6A9A7",
"[  c #A8B4A9",
"{  c #B8B7A9",
"}  c #A8AEB2",
"|  c #ABB3B4",
" . c #AAB5B9",
".. c #B3B4B4",
"X. c #BBBCB4",
"o. c #B4BABC",
"O. c #BBBBBC",
"+. c #B4B8B6",
"@. c #B1AFB0",
"#. c #A49F82",
"$. c #C3BC99",
"%. c #C6B191",
"&. c #C4BCA6",
"*. c #C6B6B2",
"=. c #E6BEB7",
"-. c #9BC48A",
";. c #9CC496",
":. c #A5CB8A",
">. c #A9D58B",
",. c #B9D987",
"<. c #A4CC9A",
"1. c #ADD99A",
"2. c #B3DB97",
"3. c #B5CB8D",
"4. c #BAE48A",
"5. c #B9E388",
"6. c #B7E496",
"7. c #9FC4A4",
"8. c #A8C9AA",
"9. c #ADD5A5",
"0. c #AED6A9",
"q. c #B3D9A8",
"w. c #BAC4B8",
"e. c #ACD2B2",
"r. c #A7D0B2",
"t. c #B3D5B4",
"y. c #B2D4BA",
"u. c #B6DAB5",
"i. c #B4CAB0",
"p. c #C3DB87",
"a. c #C8C298",
"s. c #D9CA98",
"d. c #C6E884",
"f. c #CCEA86",
"g. c #C8C4A8",
"h. c #D3CCAA",
"j. c #DBD6AB",
"k. c #C8C9B9",
"l. c #D3CDB6",
"z. c #D5D1B4",
"x. c #D9D6B9",
"c. c #C8D7AF",
"v. c #E6DBAA",
"b. c #E9C2B7",
"n. c #F9C8B7",
"m. c #E3DBB7",
"M. c #F5CCAD",
"N. c #EDE3AD",
"B. c #E9E5BA",
"V. c #FBEBB8",
"C. c #FBF4B6",
"Z. c #FDF4BC",
"A. c #F8F4B7",
"S. c #F7E6AD",
"D. c #D9E8AF",
"F. c #B5BEC2",
"G. c #BBBEC2",
"H. c #ADBAC2",
"J. c #BCC2C4",
"K. c #BCC6CA",
"L. c #B8C4C8",
"P. c #BECDD3",
"I. c #BBD2D1",
"U. c #C3C4C4",
"Y. c #C3C6C9",
"T. c #C3CBCD",
"R. c #CCCCCC",
"E. c #C7C8C4",
"W. c #D1CEC5",
"Q. c #DBDCCC",
"!. c #D5D5C6",
"~. c #CDCED2",
"^. c #C3CED2",
"/. c #C5D2D6",
"(. c #CCD2D4",
"). c #CBD6DB",
"_. c #CCD9DC",
"`. c #C6D5DB",
"'. c #D3D3D4",
"]. c #DBDBD4",
"[. c #D4D6D9",
"{. c #D3DADC",
"}. c #DBDCDB",
"|. c #D8D7D6",
" X c #CFD2C9",
".X c #E6D7CA",
"XX c #E7DCD6",
"oX c #DEE1D8",
"OX c #EAE7C8",
"+X c #F8EEC4",
"@X c #FDF3C3",
"#X c #FEF9C4",
"$X c #FEFBCC",
"%X c #F9F4C9",
"&X c #E4E3D3",
"*X c #ECE9D5",
"=X c #E2E3DC",
"-X c #E9E8DA",
";X c #F2EFDA",
":X c #FEFDD4",
">X c #F9F6D9",
",X c #FDFCDB",
"<X c #F4F3D8",
"1X c #E7F0DF",
"2X c #CDDBE3",
"3X c #C5D6E5",
"4X c #D4DEE3",
"5X c #DCDEE2",
"6X c #D0DEE9",
"7X c #E1DFE2",
"8X c #D5E1E5",
"9X c #DBE2E4",
"0X c #D4E3EA",
"qX c #DBE6EA",
"wX c #DDE9EC",
"eX c #D7EAEF",
"rX c #D6EBF3",
"tX c #DBECF2",
"yX c #D4E6F0",
"uX c #DDF1F6",
"iX c #DEF4F9",
"pX c #CEE0E6",
"aX c #E3E4E4",
"sX c #EBEAE5",
"dX c #E4E6E9",
"fX c #E4EBEC",
"gX c #EBECEB",
"hX c #E7E8E7",
"jX c #F1EBE9",
"kX c #ECF1E5",
"lX c #F3F3E5",
"zX c #F4F4EC",
"xX c #FEFEEC",
"cX c #F9F9E6",
"vX c #E3EFF2",
"bX c #ECEEF1",
"nX c #ECF3F4",
"mX c #E3F4FA",
"MX c #ECF6F9",
"NX c #E5F9FE",
"BX c #EDFBFD",
"VX c #E6F3F4",
"CX c #F3F4F4",
"ZX c #FDFCF4",
"AX c #F4F6F8",
"SX c #F4FBFC",
"DX c #FDFEFE",
"FX c #F5F8F5",
/* pixels */
"S.s.q u W K E W.2X3X).[.'.w.g.Y Y u N.@XC.Z.A.A.A.C.C.A.S.C.C.Z.N.s.j.a.3.g.g.Y.2X3X3X`.w.X.k./.P.3X",
"S.S.v.%.T W Y ^ U.O.@.{ { Y Q j.s.A.V.Z.j.s.Z.#XA.A.#X#X#XC.A.Z.C.@XQ j.Q l.g.{ 2X3X3XL. XW.E.w.2X3X",
"S.S.V.M.R q 2 K 0 &.j.j.j.a.N.Z.Z.C.C.Z.V.m.m.l.l.{ z.m.OXz.j.#XA.C.j.R h.z.#.X.8X0X/.E.l.! { g.+.T.",
"S.V.S.V.V.%.T T $.a.V.Z.Z.Z.Z.#X#XZ.A.j.h.l.*XZXSX XZXlX!.c.m.OX@X$X+X$.g.h.h.{ w.w.+.k.Q a.g.T W w.",
"@XV.@XV.V.@X+X+X@XV.Z.@X#X$X%XOXx.l.!.;XxXzXzX7XR.' }.sXDXDXlX.Xl.!.x.h.&.h.Q W g.! g.l.Q W Q Q Q { ",
"@X%X$X:X$X+X@X#X#X$X:X%XB.x.x..XzXZXDXgX}.5X5XbXzX}.zX}.}.7XsXFXZXxX-X!.k.x.W &.z.x.$.q W h.m.&.T W ",
"%X$X:XB.OX,X,XOX*Xz.k.Q.=XZXDXzXaXoX}.aX5X^.o.[.DXaXZX] U.~.|.].}.aXzXDXZXgXW.{ Y .XOXh.j.$.$.j.R OX",
"$X:XB.x.>XOXk.&.Q.1XFXZXgX9X}.7XoX[.T. .F.} S [.ZX}.CX}.@.O.X.X.U.~.}.7XaXbXDXDXjX!.x.m.z.+Xg.$.h.R ",
">X,X%XOX!.!.lXDXgX=X}.}.7X5X~.O.o.J._.eXBXL.D 5XAXaXAX|.1 7XDXjX|.U.O.*.[.{.5X7XsXCXZXcXk.Q.:X%X%Xj.",
":X$X,X<Xk. X-XoX}.|.'.E.' ' ..(.fXSXBXuXiXmXyX4XAX=XCXhXR.jXDXDXDXDXDX~./ O...U.'.'.}.sX-Xg.%Xa.#XN.",
":X:XxXg.&.oX|.U.O.U.O.O.|.gXgXdX'.J.qXBXmXmXvX5XDXaXzX7XDXDXDXDXDXAXDXO.> DXFX}.U...O.R.|.{ { <X$XA.",
":X,X,X&XZX' ^ |.DXaXdXdXU.| w.R.dXnX| /.SXtXwX[.SXsXCX7XDXDXDXDXDXDXDXzXR.DXDXDXDXDX}.H E jX].>X$X#X",
",X,X,X*XkX] A DX7X5XF.G ` {.F.F./.).DX` _.BX9X4XDXgXgX7XDXDXDXDXDXDXDXDXDXDXDXDXAXDXDXS @.].XX;X:X$X",
":X,X>X*XsX..gXaX}.o.` 4X/ G G.~ MXwX^.MX( vXwXqXAXgXgX}.DXZXDXDXDXDXDXDXDXZXDXDXDXAXDXhXU.|.&X;XxX:X",
"$X:X,X*XjXR.DX|.R.G (.G.9XY.7X|  .VXqX5X(.J.bX9XDXdXgXaXDXDXDXDXDXDXDXDXDXDXDXDXDXSXDXDX'.].oX<X<XOX",
":X:X>X*XjX XsX}.H @.5XDXDXDXDXDXDXo.9X[.fX..dX9XSXfXgXsXDXDXDXDXDXDXSXDXDXDXDXDXDXDXSXDX(.Q.oXlX&Xz.",
":X:X,X*XaX~.7XU.^ 7XDXY.R.< U.] _.` R.gXaXU.~.9XSXgXdXaXDXDXDXDXDXDXDXDXCXDXDXDXDXDXSXDX(.|.oXlXxXxX",
":X:X>X*XjX*.hX+.U.7XDXJ | F G.D 1 A DXbX7X~.Y.9XZXsXgX7XDXDXDXDXDXCXdX5X~.'.DXAXAXDXDXDXR.}.Q.lXxXxX",
"$X:X>X&XFXX.}...DX_ bXDXDXR.R.^ (.}.DXAX7X[.+.9XAXsXgXhXDXDXDX}.'.}.[.R.U.[.AXCXFXbXSXSX(.|.].zXxXxX",
":X:X,X&XzX' [.O.DX[.< ' CXDXDXZX'.G.AXDX[.'.F.9XAXaXCX7XDXDX|.'.W.@.S J ' '.nXFXSXfXVXDX'.|.].cXxXxX",
"$X:X>X&XzXX.}.U.DXDXzX' ' < ].7XDXgX] AXaXR.F.9XAXhXbX7XDXDX}.E.^ ..E.5X'.U.7XAXBXoX9XSX X'.].zXxXxX",
":X,X:XQ.zX..|.J.DXaXDXdX@.] X.& +.DX*.+.aXJ.T.9XZXgXgXgXDXDX|.|.CX*.H *.U.5X^.AXSXSXFXSXY.oX=XlXxXxX",
":X,X>X&XjX@.hXG.CXU.U.O..._ G.^ aXDX+.] aXo.{.5XAXgXaXdXDXDX7XR.U.J ~.}.R.^ Y.AXBXVXSXMXo.}.=XjXZXcX",
":X:X>X&XCX@.7XU.~.'.DXDXAXhXDXDXDXO.S U.5X+.wX4XDXaXdXdXDXDXAXJ jXdX|.R.E.' ~.gXdXqXnXdX| aX=XxXxX&X",
":X,X>XQ.lX+.dXU.(.E.~ R.7X|.7X^ < D R.5XF.T.wX}.CX7XgXdXAXCXDX/ +.9XG.}.aX@.O.G.K.oXY.K._ aX Xk.lX;X",
"%X,X>XQ.sXU._.fX' DX7X@.J < ^ J aXDX'.9X/ nX8X8XFX}.nX(.nXSXnXMXSXSX}.@.^ U.R.R.DXK.wXP.G aXW.W &.l.",
"h.,X<XQ.gXJ.5X[.{.o.DXE.K |.S 7XDXR.fXG T.BX0X9XCX=XfXdXDXSXSXwXfXqXvXCX' X.] R.(.J.wX{.~ aXQ.W #.Q ",
"$.,XcXQ.gX| MXT.dXdXG.gX|.CXXX}.~.bX~  .BXVX9XqXCXaXgX9XSXBXSXSXBX_.J.[.@.@.U.O.[ _.fXfX` =X*X!.x.B.",
"$.x.*X&XsX| uXvXK.5XMX5XdXdXdXvX9XF  .BXuXBX8X8XAXaXgX9XSXBXMXvXBXSXwX(.} ^ ..4X_.VX_.K.] aX*X>X:X$X",
"cX:X*X=XfX| 8X0XvX/.^.2X5X5X^.} F `.BXtXeXmX8X0XAXaXfXoXSXSXBXMXwX8X8XfXSX^.} ` qX8XJ.(.[ aX=X>X,X:X",
"OX>X&X].wX .0X0X0XmXtX2XP.F.L.`.BXNXiXrXiXNX0X8XAXsXfXdXnXwXvXVXqXqX8X8X_.MXNXyXqXL.L.| D gX].-XcX>X",
"&.&.K k.nX/ I.yXrX0X0XiXmXmXNXNXtXiXiXtXiXNX2XwXCXhXsX9XSX8X4X9X8XBX8X8X8X/.L.2XH._.F.` F gXE.{ [ { ",
"=.=.%..XhX/ 2X6XrXyXrXrXiXrXrXiXiXiXiXiXiXNX8XqXCXgXdX5XMXSXVXwXVX0X_.2XK.`.2XH. . .~ } G hX|.XX-X*X",
"n.n.=..XsX~ F.K.6XyXrXrXrX3XiXiXmXiXuXuXiXmX4XqXMXgXdX(.MXuXeXI.8X/.8X2X).F.K./.` ` F.~ D bX].CXxXxX",
"=.n.=..XjXS ( H.P.yXyXpX0X_.4XeX8XuXtXuXiXNXwXwXCXdXfX8XSXvX_./.8XL./.^.L. .} ` ~ ~ Z S J bXXXCXxXxX",
"=.n.=..XjX< ~ ( L.0X_. .Y.(.8X8XP. .wXfXuXvX/.dXCX=X9X` K.| ( K.o.L. .| } ` ~ F S F D & 1 ZX].zXxXxX",
"=.n.=..XjX2 S F ` ^.o.K.gXG.F.[.CXZ F.^._.{.5XDXzXaXDXdX{.E.U.O.( ( ( ` A A < F D Z - 1 S CXXXcXxXxX",
"=..X=..X7X& 1 < P [ ] ].|.0 X H xX;XlXkX1X1X'.k.E U { oXgXgXjXzXZXFXFXdX9XT.| _ S 1 1 & = CX].lXxXxX",
"=.n.=..XAXU.E.5X].&X&XQ.i.[ 0 r D.3.U 0 e 0 5 3.y r $     # * , 3 J E U.{.gXDXDXDXAXCX[.O.ZX=XxXxXxX",
"M.M.%.%.*.l.W ! i.Y 5 5 0 q p.p.j p.5.j j k j j t 3.3.w : @ , , * # O O < 4 < S ~ ..G.'.}.=XE.zXZXZX",
"u 2 q r 6 r y r e t p.j s c f.f.n k N B B f.k d.d.f.x ! e e @ + * ; : * # , ; : & & X   & X O ; E xX",
"7 8 9 s a 8 8 p.6 ,.f.s f V v C v i f v C C k t d.z 5.,.:.c.q.w @ * 4 , < = * < > - * # - - & o o < ",
"c c g v f n V k t r s g V p b b b p m N n m f.d k 4.5.2.:.q.1.9.I @ @ : : > 1 & 1 > * * < ; > < % O ",
"v i l v b l v B j p.s c p p C b C C z d.N N d.d.z 6.4.2.-.:.q.9.u.<.$ O < & = - > = = & X = * > - . ",
"i v c v g v v c t t c V s V n m N N d z 5.5.5.6.>.>.6.1.1.;.;.q.9.i.t.3 + % % ; X * % - - X X ; 1 1 ",
"v p 9 i c B B k t k B z V V B m N d.x x 4.5.6.6.6.<.1.q.u.0.w <.u.0.i.u.L . % % ; 1 1 - & . X # 1 % ",
"c 9 i c 8 j t a c f.z d m m m N z 4.5.x 5.6.6.6.q.1.-.q.q.u.-.3 r.y.e.8.y.[ 4 + X * = - = X # = 1 % ",
"i c V c t p.c B V v f d N N N z z 5.6.>.>.6.1.1.1.q.<.9.q.u.u.I L 7.t.e.7.y.8.3 : : ; = X O o . . % ",
"c c j t a g B n v n d k z z 4.4.5.4.6.:.-.1.q.q.0.0.0.;.7.u.t.e.I L t.e.e.7.8.y.I L L A A 3 3 % @ % ",
"g i t j M n n f l n d k z 5.4.4.2.2.2.:.:.9.1.9.0.0.q.7.I r.r.e.r.I 7.e.e.y.7.r.r.I.y.y.y.u.I.y.I L "
};
