/* XPM */
static char *_05721ab505b4e40c2294c4467ca9adaVJZdkZec9habxwMs[] = {
/* columns rows colors chars-per-pixel */
"50 50 252 2 ",
"   c #010101",
".  c #0B0202",
"X  c #030B03",
"o  c #090907",
"O  c #02030A",
"+  c #0B020A",
"@  c #040B0B",
"#  c #090A0A",
"$  c #130102",
"%  c #150907",
"&  c #05130C",
"*  c #181308",
"=  c #010312",
"-  c #060A13",
";  c #1D0912",
":  c #0A121B",
">  c #171817",
",  c #270A04",
"<  c #281906",
"1  c #3A1901",
"2  c #271A19",
"3  c #341915",
"4  c #1D2219",
"5  c #27250A",
"6  c #39240B",
"7  c #362715",
"8  c #161C23",
"9  c #221C23",
"0  c #1A262B",
"q  c #162A36",
"w  c #282829",
"e  c #2A3128",
"r  c #34342E",
"t  c #252B37",
"y  c #382B39",
"u  c #29373C",
"i  c #393939",
"p  c #4A1315",
"a  c #6D1016",
"s  c #502B08",
"d  c #583A14",
"f  c #683809",
"g  c #763A12",
"h  c #5A1F21",
"j  c #73132A",
"k  c #4E2B2E",
"l  c #433638",
"z  c #6E2F29",
"x  c #6A2B37",
"c  c #2E4638",
"v  c #794605",
"b  c #694418",
"n  c #744A12",
"m  c #775231",
"M  c #1D3944",
"N  c #293845",
"B  c #373B47",
"V  c #333C59",
"C  c #592E41",
"Z  c #473947",
"A  c #78384C",
"S  c #2B4448",
"D  c #384547",
"F  c #2A4559",
"G  c #3A4955",
"H  c #3D5555",
"J  c #235168",
"K  c #474749",
"L  c #534B49",
"P  c #4A4D57",
"I  c #564E52",
"U  c #4A5256",
"Y  c #585A5B",
"T  c #785453",
"R  c #54655F",
"E  c #736554",
"W  c #4A5767",
"Q  c #4C5469",
"!  c #595B63",
"~  c #6A5C66",
"^  c #5C6567",
"/  c #546979",
"(  c #636765",
")  c #6F6F72",
"_  c #767878",
"`  c #890C17",
"'  c #831817",
"]  c #961713",
"[  c #A50D17",
"{  c #8C3413",
"}  c #AC231B",
"|  c #8B1B2F",
" . c #971828",
".. c #B3132C",
"X. c #9B2C2F",
"o. c #AA2E35",
"O. c #CF131A",
"+. c #D80F2A",
"@. c #CB1823",
"#. c #E31132",
"$. c #CE242E",
"%. c #91510E",
"&. c #895616",
"*. c #96561B",
"=. c #B2490F",
"-. c #AA5B0C",
";. c #A55418",
":. c #B25916",
">. c #99640D",
",. c #A86719",
"<. c #BC651B",
"1. c #AF7212",
"2. c #8F5326",
"3. c #A6512B",
"4. c #906628",
"5. c #A67527",
"6. c #B3702E",
"7. c #CD4C08",
"8. c #C56809",
"9. c #D1700F",
"0. c #DB720A",
"q. c #C76A16",
"w. c #E67707",
"e. c #EB770A",
"r. c #E67915",
"t. c #C54A2B",
"y. c #CA6F29",
"u. c #D87A24",
"i. c #D87B38",
"p. c #E67726",
"a. c #F17922",
"s. c #903C4C",
"d. c #DA1F43",
"f. c #D32D49",
"g. c #EB304C",
"h. c #8E5351",
"j. c #A85352",
"k. c #B46756",
"l. c #946F66",
"z. c #B6656D",
"x. c #CE4E51",
"c. c #F04C54",
"v. c #C6685E",
"b. c #C95869",
"n. c #E65665",
"m. c #FB5869",
"M. c #D5726F",
"N. c #F16C71",
"B. c #7F8C7B",
"V. c #BC8A32",
"C. c #9BBB3E",
"Z. c #D28914",
"A. c #DA8816",
"S. c #E88608",
"D. c #F38906",
"F. c #F69808",
"G. c #E88A17",
"H. c #E5971B",
"J. c #F49213",
"K. c #FEA306",
"L. c #F2A317",
"P. c #D08C32",
"I. c #EA932E",
"U. c #D7AB32",
"Y. c #F6A82B",
"T. c #F3AC32",
"R. c #F8C218",
"E. c #FDC328",
"W. c #E7C635",
"Q. c #FACB3C",
"!. c #868457",
"~. c #B58451",
"^. c #A28D6F",
"/. c #B8A975",
"(. c #D3934B",
"). c #E69647",
"_. c #F39E44",
"`. c #D4A856",
"'. c #EDB24C",
"]. c #CF8E72",
"[. c #E4867C",
"{. c #C7AF70",
"}. c #F2CB4A",
"|. c #FED545",
" X c #F4E157",
".X c #EAD368",
"XX c #33728B",
"oX c #3E6E93",
"OX c #5E6380",
"+X c #697585",
"@X c #747A85",
"#X c #977384",
"$X c #C57485",
"%X c #7B8A90",
"&X c #5187A8",
"*X c #34B9FE",
"=X c #54B8EF",
"-X c #5DCCFF",
";X c #868689",
":X c #899798",
">X c #909194",
",X c #B8868C",
"<X c #91A194",
"1X c #ABAB9A",
"2X c #9095A0",
"3X c #A59CA5",
"4X c #94A8AE",
"5X c #A6A7A7",
"6X c #A6AAB6",
"7X c #B1AFB0",
"8X c #A7B2B9",
"9X c #B8BABA",
"0X c #EA8888",
"qX c #EB918E",
"wX c #F89B97",
"eX c #E0A098",
"rX c #EFAC9D",
"tX c #F8A69C",
"yX c #D3B0B1",
"uX c #B8C3B3",
"iX c #D6CDAD",
"pX c #B1B7C9",
"aX c #B9C8CC",
"sX c #B8CCD2",
"dX c #98D4F4",
"fX c #BBD6E8",
"gX c #A7D1F1",
"hX c #BDE6F5",
"jX c #C4C5C5",
"kX c #CDD6CB",
"lX c #C8C8D4",
"zX c #CAD5DB",
"xX c #D6DADB",
"cX c #EAD5DC",
"vX c #C7D9E7",
"bX c #D6DCE6",
"nX c #D3DFF7",
"mX c #ECDFE7",
"MX c #C9E2E5",
"NX c #DBE6EA",
"BX c #CBEBFB",
"VX c #D7E8F7",
"CX c #DAF3F5",
"ZX c #E6E8ED",
"AX c #EBF4E8",
"SX c #E8EAF6",
"DX c #EEF2F4",
"FX c #E8F7FC",
"GX c #FDFEF5",
"HX c #F6F5F9",
"JX c #F5FCFE",
"KX c #FDFDFD",
/* pixels */
"                                        O           O   O @ * * e i ( i O       . O                 ",
"                                                    @ 0 M y > w K %XKXDX4XF : @ @ O                 ",
"                                                    O G Q w X w i pXGXBXdX-XoX: @                   ",
"                                              O O   & u P w 3 h T kXFXhX-X*XXX> @ .                 ",
"                                            0 t >   + C X.` [ | I ^ / &X=X&X* i 0 O                 ",
"                                        o O B D B e 4 o.X.l D H K P P U oXM w P B @                 ",
"                                          # B N u i B B u N l l c L K I U H S Q B                   ",
"                                      #   O u G u 9 4 > t <X7XI t t r B K U W u = .                 ",
"          O                               O ; G oXP / _ 8XKXJXaXR W u t r i P t                     ",
"          o o             o         O O   O O ! xX:XbXFXSXNXbXSX5XpX@XV e t D B - O                 ",
"  o   > ( >                   #       O O     >XJXZXKXKXNXvXvXvXkXSXSX%Xq @X_ w * X                 ",
"      > 9XKX_                             O O :XvXZXKXGXbXvXFXfXnXHXAX9XaXDX>XK   O                 ",
"        & jXKX5XO         o         O       o ^ BXfXHXGXzXBXFXCXfXHXKXHXKXKXGXAX3X:                 ",
"U 9X2XY   @ kXKX5X#   #           X   O O K I 4XBXfXZXKXMXBXVXHX8XvXGXiXlXKXDXaX3XK                 ",
"4 5XFXDXlX^ >XSXKX9X>   U jX7Xo       # O K MXNXsXaXfXKXMXhXCXzX/ ^.U.V.5XlXbXVXe                   ",
"O > lXSXxXJXDXDXGXKXxX5XKXGXY       o O . +XgX1X{./ %XnXbXzXFX4X= P.S.8.yXBXvX:X^                   ",
"    > 5XJXZXZXKXKXKXKXKXGX;X          2 7 _ AXgXP.8XgX1X}.{.iX/.5.Y.r.m w ^ vXD   #                 ",
"    O O @XHXDXHXKXAXFXKXKX^ O #     * i.J.G.I.`.U.iXAXkX.X|.Q.E.R.1.8.1   O u i                     ",
"    O     R NXJXDXDXzXZXKX^ O + X   @ < d b d d n 1.A.`.U.L.H.S.=.q.,.$   O O   +                   ",
"    o     O ^ zXDXKXHXmXxX_ 9 % X . X O   O       X v -.7.6.v.=.=.r.b   X O O                       ",
"            O w 6XNXKXKXjX_ _ @     O + $ + .   $ = ~ i.7.p.i.0.p.Y.6   O O   o                     ",
"            O   @ 8XxXFX4X;X>X2 O   O   O     = 9 i aXcX(.S.F.I.r.&..             O                 ",
"              : t +XFX6X! 4X^ k ,   O     O : N N 5XSXkXB.l.d < % O O           +                   ",
"    O         w G t %XP #X%Xc h.z.. 3 p z j S y L 4X:X_ :XOX+   O   O O   O O   O                   ",
"            O t P q r ( ~ G y 0XqXx.n.N.g.Q J N I ) >X#XR i & o   . X   .   O O   .                 ",
"          O   : B B t N D y b.rX0XN.M.g...A A Z F Y ( S h.0X, . -       .             #             ",
"              O 8 q B k h *.(.].k.f.f... .t.).d V w r x 0XtX0X, X   .       .           #           ",
"                  O a $.>.P.T.}..X5.} ..o.). X3.V c y $.m.0XtXM.p       X         #                 ",
"                      b 5.5.3.;.P.}.6.X.o.i.'.] l Z ..#.f.n.0XtX0Xz O O   + +       > #             ",
"                  O   b 1.>.z j s >.P.!.z.z.k. .O.O.@.] o.#.n.wXrXN.h .     @ 4 Y 7XY               ",
"                    O s 5.5.5   o K iXDXKXFXHX,XO.O.` ` ..#.N.wXwXN.g.l.3 4 :XmXKX7X    o           ",
"                    .   m 1.6.*   5XSXNXKXKXKXJXl.p Z ~ l.~ l.0XwXN.@.rXqX,XNXDXJX9Xi               ",
"      O +         O   O % &.b X O >XaX6XHXJXJXJXJX%XK ! <X5X;X) $Xg.$.eXrX[.lXZXKXsXo     O X       ",
"            O     . O         $ $ ! pXpXCXxXHXGXGXHXzX/ B ) >X;XA #.f.0XrXqXyXJXGX_           O . o ",
"                  O     @ X O = @ U ( %XlXjXJXKXKXGXHXFX+XS ^ +XZ [ o.N.wXqXeXKXHXD   O O           ",
"      O       X O . O $ s -.&.*     O & 5XnXbXzXCXHX3XB.I y L ! Z ' d.c.wXqXyXJXHXI O O O O       @ ",
"      +         . v 1.8.r.w.G.Z.d *   . D lX7XE k.! F q : N B D k [ d.n.0XN.yXGXDXU           O     ",
"      +       O 1 F.D.w.e.r.0.w.r.9.V.d O & s.X.&.v A Z S F G k ` ..#.n.N.b.ZXDXvXB       O O       ",
"      O     O O s F.S.D.w.w.w.w.r.r.G.U.O ; .. .{ 4.3...` a a ` ] +.#.c.c.M.FXlXpXm b s $           ",
"      O   O .   . 1.K.D.w.r.0.w.0.r.0.I.2.< @.[ h.!.>.^.x.[ |  .@.+.#.n.f.aXaX~.l.<._._.~.d $   O   ",
"        O     O $ %.G.D.S.w.w.r.0.w.e.I.P.b O.} C./.h.5.8Xb.[ ] O.+.#.g.j.uXu.Y.q.6.y.(.'.Y.%.+   + ",
"        O     O . d q.;.8.0.r.w.w.e.e.9.).k.(.P.W.T.9.>.5.sX,X....@.+.#.z.U.S.Q. X}.(.P.y.c.a.%.+   ",
"        O     O   . >.>.2.*.:.<.8.8.q.1._.6.5.(.T.L.S.,.v m S r a } +.+.2 d L.F.E.|.U.i.u.x.y.0.f   ",
"    .     O     O   O g :.*.&.%.*.3.*.-.T.).=.q.P.g 6 X > n s O   ; p a $ , 5.S.H.Z.q.q.T.T.u.q.<., ",
"              .   O O . { q.6.*.*.*.n %.I._.q.q.*.O   O + o < . .     g ;.-.:.,.6.y.i.u.I.r.:.3.Z.6 ",
"            O   . O . O   %.0.<.-.;.3.=.q.P.g g *     @     O   O O f Z.T.U.U.I.Z.P.1.8.<.,.;.6.F.f ",
"      +           o . O O   %.e.9.u.0.0.A.y.. $ O . .   O     $ o n F.J.T.E.E.|.Q.|.|.Q.T.}.Q.E.K.&.",
"      O . X O O     O       . s 9.e.e.D.H.b +   O     =       O O < 7 6 f 1.S.S.G.S.Z.H.L.L.L.J.9.5 ",
"                        O O     % 7 %.&.s .   O                           . ; 2 3 % % < 1 6 6 < .   ",
"                          O o . . .     O                             o o         .       +       O "
};
