/* XPM */
static char *ef4dd698e67349d29c78374e4217c0ecYB1QapFXMoeabV2H[] = {
/* columns rows colors chars-per-pixel */
"50 50 256 2 ",
"   c #010101",
".  c #0B0202",
"X  c #030B03",
"o  c #02030A",
"O  c #0B020A",
"+  c #040B0B",
"@  c #090A0A",
"#  c #090907",
"$  c #130102",
"%  c #150907",
"&  c #05130C",
"*  c #181308",
"=  c #010312",
"-  c #060A13",
";  c #0A121B",
":  c #171817",
">  c #1D0912",
",  c #270A04",
"<  c #281906",
"1  c #3A1901",
"2  c #271A19",
"3  c #341915",
"4  c #1D2219",
"5  c #39240B",
"6  c #362715",
"7  c #27250A",
"8  c #161C23",
"9  c #221C23",
"0  c #162A36",
"q  c #1A262B",
"w  c #282829",
"e  c #34342E",
"r  c #252B37",
"t  c #382B39",
"y  c #29373C",
"u  c #393939",
"i  c #2A3128",
"p  c #4A1315",
"a  c #6D1016",
"s  c #583A14",
"d  c #502B08",
"f  c #683809",
"g  c #653B16",
"h  c #763A12",
"j  c #73132A",
"k  c #433638",
"l  c #4E2B2E",
"z  c #6A2B37",
"x  c #6E2F29",
"c  c #5A1F21",
"v  c #2E4638",
"b  c #794605",
"n  c #694418",
"m  c #744A12",
"M  c #775231",
"N  c #4E492D",
"B  c #293845",
"V  c #373B47",
"C  c #333C59",
"Z  c #1D3944",
"A  c #473947",
"S  c #592E41",
"D  c #78384C",
"F  c #2B4448",
"G  c #384547",
"H  c #2A4559",
"J  c #3A4955",
"K  c #3D5555",
"L  c #235168",
"P  c #474749",
"I  c #534B49",
"U  c #4A4D57",
"Y  c #4A5256",
"T  c #585A5B",
"R  c #564E52",
"E  c #785453",
"W  c #736554",
"Q  c #4A5767",
"!  c #595B63",
"~  c #4C5469",
"^  c #6A5C66",
"/  c #5C6567",
"(  c #546979",
")  c #636765",
"_  c #767878",
"`  c #6F6F72",
"'  c #54655F",
"]  c #890C17",
"[  c #831817",
"{  c #961713",
"}  c #A50D17",
"|  c #8C3413",
" . c #AC231B",
".. c #971828",
"X. c #8B1B2F",
"o. c #B3132C",
"O. c #9B2C2F",
"+. c #AA2E35",
"@. c #CF131A",
"#. c #CB1823",
"$. c #D80F2A",
"%. c #E31132",
"&. c #C7323B",
"*. c #CE242E",
"=. c #895616",
"-. c #96561B",
";. c #91510E",
":. c #AA5B0C",
">. c #A55418",
",. c #B25916",
"<. c #B2490F",
"1. c #99640D",
"2. c #A86719",
"3. c #BC651B",
"4. c #AF7212",
"5. c #8F5326",
"6. c #A6512B",
"7. c #906628",
"8. c #A67527",
"9. c #B3702E",
"0. c #CD4C08",
"q. c #C56809",
"w. c #DB720A",
"e. c #C76A16",
"r. c #D1700F",
"t. c #E67707",
"y. c #E67915",
"u. c #EB770A",
"i. c #D87A24",
"p. c #D87B38",
"a. c #CA6F29",
"s. c #E67726",
"d. c #F17922",
"f. c #C54A2B",
"g. c #903C4C",
"h. c #D32D49",
"j. c #EB304C",
"k. c #DA1F43",
"l. c #8E5351",
"z. c #B46756",
"x. c #946F66",
"c. c #B6656D",
"v. c #A85352",
"b. c #CE4E51",
"n. c #F04C54",
"m. c #C95869",
"M. c #E65665",
"N. c #FB5869",
"B. c #D5726F",
"V. c #F16C71",
"C. c #C6685E",
"Z. c #7F8C7B",
"A. c #BC8A32",
"S. c #9BBB3E",
"D. c #DA8816",
"F. c #D28914",
"G. c #E88608",
"H. c #F38906",
"J. c #F69808",
"K. c #E88A17",
"L. c #E5971B",
"P. c #F49213",
"I. c #FEA306",
"U. c #F2A317",
"Y. c #D08C32",
"T. c #EA932E",
"R. c #D7AB32",
"E. c #F6A82B",
"W. c #F3AC32",
"Q. c #FDC328",
"!. c #FACB3C",
"~. c #E7C635",
"^. c #F8C218",
"/. c #868457",
"(. c #B58451",
"). c #B8A975",
"_. c #A28D6F",
"`. c #D3934B",
"'. c #E69647",
"]. c #F39E44",
"[. c #D4A856",
"{. c #EDB24C",
"}. c #CF8E72",
"|. c #E4867C",
" X c #C7AF70",
".X c #FED545",
"XX c #F2CB4A",
"oX c #EAD368",
"OX c #F4E157",
"+X c #33728B",
"@X c #3E6E93",
"#X c #697585",
"$X c #747A85",
"%X c #5E6380",
"&X c #977384",
"*X c #C57485",
"=X c #7B8A90",
"-X c #5187A8",
";X c #34B9FE",
":X c #54B8EF",
">X c #5DCCFF",
",X c #868689",
"<X c #899798",
"1X c #909194",
"2X c #B8868C",
"3X c #ABAB9A",
"4X c #9095A0",
"5X c #A59CA5",
"6X c #94A8AE",
"7X c #A6A7A7",
"8X c #A6AAB6",
"9X c #A7B2B9",
"0X c #B8BABA",
"qX c #B1AFB0",
"wX c #91A194",
"eX c #EA8888",
"rX c #F89B97",
"tX c #EB918E",
"yX c #F8A69C",
"uX c #EFAC9D",
"iX c #D3B0B1",
"pX c #E0A098",
"aX c #B8C3B3",
"sX c #D6CDAD",
"dX c #B1B7C9",
"fX c #B9C8CC",
"gX c #B8CCD2",
"hX c #98D4F4",
"jX c #BBD6E8",
"kX c #A7D1F1",
"lX c #BDE6F5",
"zX c #C4C5C5",
"xX c #C8C8D4",
"cX c #CAD5DB",
"vX c #D6DADB",
"bX c #CDD6CB",
"nX c #C7D9E7",
"mX c #D6DCE6",
"MX c #D3DFF7",
"NX c #ECDFE7",
"BX c #C9E2E5",
"VX c #DBE6EA",
"CX c #CBEBFB",
"ZX c #D7E8F7",
"AX c #DAF3F5",
"SX c #E6E8ED",
"DX c #F6EEE7",
"FX c #EBF4E8",
"GX c #E8EAF6",
"HX c #EEF2F4",
"JX c #E8F7FC",
"KX c #FDFEF5",
"LX c #F5FCFE",
"PX c #FDFDFD",
"IX c #F6F5F9",
"UX c #EAD5DC",
/* pixels */
"                o .       o u ) u i * * + o   o           o                                         ",
"                o + + ; H 6XHXPX=XP w : t Z q +                                                     ",
"                  + ; @X>XhXCXKXdXu w X w ~ J o                                                     ",
"                . + : +X;X>XlXJXbXE c 3 w U y &   o o                                               ",
"                o q u * -X:X-X( / R X.} ] O.S O   : r q                                             ",
"                + V U w Z @XY U U P K G k O.+.4 i V G V o #                                         ",
"                  V ~ F K Y R P I v k k B y V V u y B V @                                           ",
"                . = y Q Y P V e r r R qXwXr : 4 9 y J y o   @                                       ",
"                    r U u e r y Q ' fXLXPX9X_ ( U @XJ > o                               o           ",
"                o - V G r i C $XdX7XGXmXVXGXJXmX<XvX! o o   o o         #             # #           ",
"                X * w _ $X0 =XGXGXbXnXnXnXVXPXPXSXLX1X    o o       @                   : ) :   #   ",
"                o   P 1XHXfX0XFXIXMXjXJXnXmXKXPXSXnX<Xo o                             _ PX0X:       ",
"                ; 5XFXKXPXPXIXPXIXjXAXJXCXcXKXIXjXCX/ #       o         #         o 7XPXzX&         ",
"                P 5XfXHXPXxXsXKXnX9XIXZXCXBXPXSXjXCX6XR P o o   X           @   @ 7XPXbX+   T 4X0XY ",
"                  i ZXmXxX7XA.R._.( cXAXlXBXPXjXfXgXVXBXP o @       # qXzXY   : 0XPXGX1X/ xXHXJX7X4 ",
"                  / <XnXCXiXq.G.Y.= 6XJXcXmXMX=X(  X3XkX#X. o #       T KXPX7XvXPXKXHXHXLXvXGXxX: o ",
"                @   G nX/ w M y.E.8.).sX XXX3XkX9XY.kXFX_ 6 2           ,XKXPXPXPXPXPXSXSXLX7X:     ",
"                    u y o   1 q.4.^.Q.!..XoXbXFXsXR.[.T.K.P.p.*     @ o / PXPXJXFXPXIXHXIX$Xo o     ",
"                  O   o o   $ 2.e.<.G.L.U.R.[.D.4.m s s n s < +   X O o / PXSXcXHXHXLXVX'     o     ",
"                      o o X   n y.<.<.C.9.0.:.b X       o   o X . X % 9 _ vXNXIXPXHXcX/ o     #     ",
"                    #   o o   5 E.s.w.p.s.0.p.^ = $   . O $ O o     + _ _ zXPXPXVX8Xw o             ",
"                o             . =.y.T.J.G.`.UXfXu 9 =     o   o   o 2 1X,X6XJXvX9X+   o             ",
"                  O           o o % < s x.Z.bXGX7XB B ; o     o   , l / 6X! 8XJX#Xr ;               ",
"                  o   o o   o o   o   O %X<X_ <X6XI t F j x p 3 . c.l.v =X&XU =Xr J w         o     ",
"                .   o o   .   X .   # & u ' &X1X` R B L ~ j.V.M.b.tXeXt J ^ ) e 0 U r o             ",
"            @             .       - . , eXl.F ) T H A D D o.j.B.V.eXuXm.t G B r V V ;   o           ",
"          @           .       .   X , eXyXeXz e w C s '.f...o.h.h.z.}.`.-.c l V 0 8 o               ",
"                @         X       p B.yXeXN.*.t v C 6.OX'.+.o. .8.oXXXW.Y.1.*.a o                   ",
"            @ :       O O   o o x eXyXeXM.h.%.o.A k { {.p.+.O.9.XXY.>.6.8.8.n                       ",
"              T qXT 4 +     . c V.uXrXM.%.+.{ #.@.@...z.c.c./.Y.1.d j x 1.4.n   o                   ",
"          #     qXPXNX<X4 3 x.j.V.rXrXV.%.o.] ] @.@.2XIXJXPXHXsXP #   7 8.8.d o                     ",
"              u 0XLXHXVX2XtXuX#.V.rXeXx.^ x.^ A p x.LXPXPXPXVXGX7X  * 9.4.M   .                     ",
"      X o     # gXPXSXxX|.uXpX*.j.*X` ,X7XwX! P =XLXLXLXLXIX8XfX1Xo X n =.% o   o         O o       ",
"# . o           _ KXLXiXtXuXeXh.%.D ,X1X` V ( cXIXKXKXIXvXAXdXdX! $ $         o .     o             ",
"          o o   G IXPXpXtXrXV.+.} A #X/ F #XJXIXKXPXPXLXzXxX=X) Y + = o X +     o                   ",
"+       o o o o R IXLXiXtXrXn.k.[ A ! I t R Z.5XIXAXcXmXMX7X& o     * =.:.d $ o . o X       o       ",
"    o           Y HXKXiXV.eXM.k.} l G V B ; 0 H ! z.W qXxXG .   * s F.K.t.y.q.4.b .         O       ",
"      o o       V nXHXSXm.V.M.%.o.] l J H F A D b =.O.g.& o s A.r.y.t.w.y.u.t.H.J.1 o       O       ",
"          $ d n M dXxXJXB.n.n.%.$.{ ] a a ] o.6.7.| ..o.> o R.K.y.y.t.t.t.t.H.G.J.d o o     o       ",
"  o   $ s (.].].3.x.(.fXfXh.M.%.$.#...X.} b._.1./.l.} #.< 5.T.w.y.w.t.w.y.t.H.I.4..   . o   o       ",
"O   O ;.E.{.`.a.9.e.E.i.aXv.j.%.$.@.{ } m.9X8.l.).S. .@.n Y.T.u.t.w.y.t.t.G.H.K.;.$ o     o         ",
"  O ;.d.n.a.Y.`.XXOX!.G.R.c.%.$.#.o.o.2XgX8.1.r.W.~.Y.`.z.'.r.u.u.t.t.y.w.q.>.e.s . o     o         ",
"  f w.a.b.i.p.R..XQ.J.U.s 2 $.$. .a e F M b 2.G.U.W.`.8.9.].4.e.q.q.3.,.-.5.1.1..   o     o         ",
", 3.e.i.W.W.e.e.F.L.G.8., $ a p >   o d m : X 5 h Y.e.<.'.W.:.-.6.-.;.=.-.,.h o   o     o     .     ",
"5 F.6.,.y.T.i.p.a.9.2.,.:.>.h     . . < # O o   o -.e.e.].T.;.m -.-.-.9.e.| . o o   .               ",
"f J.9.>.2.3.q.4.Y.F.T.R.R.W.F.f o o   o     +     * h h Y.e.<.6.>.:.3.w.;.  o . o .   o             ",
"=.I.Q.!.XXW.!..X.X!..XQ.Q.W.P.J.m # $     o   . . o $ . a.D.w.w.i.r.u.;.  o o . #           O       ",
"7 r.P.U.U.U.L.F.G.K.G.G.4.f 5 6 < o o       =     o   O n L.H.u.u.r.d .       o     o o X . o       ",
"  . < 5 5 1 < % % 3 2 > .                           o   . d =.;.6 %     o o                         ",
"o       O       .         # #                             o     . . . # o                           "
};
