/* XPM */
static char *caad1cc0d9624a83ac38a24d1c8c2205ipNsTf5YsxiY6I7t[] = {
/* columns rows colors chars-per-pixel */
"50 50 200 2 ",
"   c #020201",
".  c #0C0400",
"X  c #110300",
"o  c #170803",
"O  c #150A08",
"+  c #290E05",
"@  c #2F1403",
"#  c #291D07",
"$  c #2D150A",
"%  c #2E1A0C",
"&  c #341605",
"*  c #381303",
"=  c #35150B",
"-  c #39140C",
";  c #331A0C",
":  c #3A1C0C",
">  c #2C1C14",
",  c #2C1D18",
"<  c #311410",
"1  c #371C13",
"2  c #3B1E13",
"3  c #3B200F",
"4  c #2C2A1C",
"5  c #2C231C",
"6  c #362113",
"7  c #3C2415",
"8  c #362A12",
"9  c #3A2A13",
"0  c #34231A",
"q  c #3B261A",
"w  c #372F18",
"e  c #3E2A1B",
"r  c #3A2723",
"t  c #342926",
"y  c #3B2B20",
"u  c #392628",
"i  c #4C1E06",
"p  c #421F0B",
"a  c #43280D",
"s  c #53250E",
"d  c #5D2B0D",
"f  c #442514",
"g  c #482716",
"h  c #422814",
"j  c #492A16",
"k  c #42251B",
"l  c #49241E",
"z  c #412A1B",
"x  c #4D2E1D",
"c  c #502512",
"v  c #532C13",
"b  c #532E1C",
"n  c #4F3011",
"m  c #4B3219",
"M  c #503114",
"N  c #52311E",
"B  c #5F301E",
"V  c #6E2B0E",
"C  c #702F13",
"Z  c #6C3316",
"A  c #65341A",
"S  c #6D351A",
"D  c #703517",
"F  c #71351B",
"G  c #7E371B",
"H  c #753A1C",
"J  c #7D3C1C",
"K  c #402720",
"L  c #422D21",
"P  c #4C2E23",
"I  c #4C2F29",
"U  c #512E20",
"Y  c #4F3220",
"T  c #503023",
"R  c #5A3623",
"E  c #653524",
"W  c #693620",
"Q  c #653B24",
"!  c #6C3A24",
"~  c #673E28",
"^  c #6D3D29",
"/  c #743722",
"(  c #743C24",
")  c #7C3D21",
"_  c #743C29",
"`  c #793E2A",
"'  c #783E30",
"]  c #724423",
"[  c #7B4126",
"{  c #76412B",
"}  c #7B422B",
"|  c #7F492F",
" . c #7F4730",
".. c #794933",
"X. c #833A17",
"o. c #82371C",
"O. c #813B1C",
"+. c #813920",
"@. c #844224",
"#. c #8B4625",
"$. c #8D4827",
"%. c #85462D",
"&. c #8D4729",
"*. c #824B2D",
"=. c #8D4929",
"-. c #904727",
";. c #954B26",
":. c #994E27",
">. c #95472C",
",. c #944C2B",
"<. c #994C2A",
"1. c #955127",
"2. c #9D5523",
"3. c #95512C",
"4. c #9C512C",
"5. c #854730",
"6. c #884731",
"7. c #854A31",
"8. c #894A33",
"9. c #964E34",
"0. c #9C4E31",
"q. c #825035",
"w. c #965533",
"e. c #9B5433",
"r. c #9F5937",
"t. c #965338",
"y. c #9F573F",
"u. c #925B3C",
"i. c #9C5C3C",
"p. c #A14D2B",
"a. c #A84F2D",
"s. c #A55726",
"d. c #AA5627",
"f. c #A25827",
"g. c #A5552E",
"h. c #AA562E",
"j. c #A5592E",
"k. c #AB592E",
"l. c #B1532F",
"z. c #B35B2E",
"x. c #A14F31",
"c. c #AC4E32",
"v. c #A65632",
"b. c #AA5631",
"n. c #A35934",
"m. c #A65834",
"M. c #A55935",
"N. c #A65932",
"B. c #AA5830",
"V. c #AB5830",
"C. c #AB5931",
"Z. c #A85932",
"A. c #A85833",
"S. c #AA5832",
"D. c #AA5833",
"F. c #A95A33",
"G. c #A85930",
"H. c #AE5932",
"J. c #AD5A32",
"K. c #AD5A33",
"L. c #AD5C31",
"P. c #A95934",
"I. c #AB5934",
"U. c #A95A36",
"Y. c #AC5834",
"T. c #AD5A35",
"R. c #AC5C37",
"E. c #AA5832",
"W. c #AA5538",
"Q. c #A35838",
"!. c #A75B3A",
"~. c #A35D39",
"^. c #AD583B",
"/. c #AF5F3A",
"(. c #AD5C3E",
"). c #AA5C3B",
"_. c #B05B34",
"`. c #B35A35",
"'. c #B15C35",
"]. c #B55D35",
"[. c #BA5E37",
"{. c #BC5F34",
"}. c #BA5B35",
"|. c #B05E38",
" X c #B35E3A",
".X c #B95D38",
"XX c #BB5F3A",
"oX c #B46135",
"OX c #BF6032",
"+X c #BE6337",
"@X c #BA6237",
"#X c #B6633A",
"$X c #BB623A",
"%X c #B9623B",
"&X c #BC6039",
"*X c #B96539",
"=X c #B9643B",
"-X c #C0643D",
";X c #BE6642",
":X c #BD6843",
/* pixels */
"V !.;XXX&XXX#X=X&X&X$X&X$X$X&X$X=XXX-X$X&X;X(.C . X H #X:XOX+X{.$X$X$X&X&X&X&X$X$X&X=X&X&X$X$X&Xi.d ",
"=.!.V.h.[._.V._.J.J.J.J.J._.J.J.L.V.`.k.d.Y.(.@.L K =.'.n.h._.H.J.J.J.J.J.J.J.J.J._.J.J.J.J.J._.(.J ",
"e.A.g.h.H.g.b.g.k.v.b.b.b.S.S.k.b.g.V.h.h.g.m.$.x U ,.h.g.g.R.n.S.S.b.b.b.S.S.k.S.S.S.b.S.v.b.b.p.G ",
">.g.V.k.b.v.V.b.S.v.S.b.S.S.v.v.b.V.V.S.J.g.v.@.g N <.h.m.h.v.v.S.v.b.b.S.S.v.v.v.v.S.S.S.v.S.S.<.J ",
"<.b.V.g.g.v.R.g.b.b.b.b.h.b.b.b.S.A.b.g.j.h.v.#.b T <.h.b.h.g.V.b.b.b.b.b.b.b.b.k.S.h.b.b.b.b.h.v.J ",
"<.g.g.h.v.v.S.h.b.b.V.b.b.b.b.b.g.Y.Y.g.j.b.m.&.x P ,.g.m.d.h._.V.b.V.b.b.V.b.b.b.b.b.b.b.b.b.b.<.J ",
"<.a.b.H.J.v.j.h.S.S.S.S.b.b.S.S.j.b.Y.b.A.b.v.@.x Y 9.b.W.d.h.b.b.b.S.b.V.b.S.S.S.b.S.S.b.b.S.S.e.) ",
"<.m.b.g.V.S.k.g.j.v.j.v.h.v.j.v.V.b.b.v.b.b.v.#.j P ,.j.n.b.b.v.j.v.j.v.h.v.j.v.j.v.j.b.h.v.j.v.p.J ",
"9.v.v.S.A.m.v.b.b.b.S.b.S.b.b.b.Y.j.S.H.g.b.Q.@.m T ,.b.m.h.g.A.S.b.b.S.b.b.b.S.v.b.b.b.S.b.b.b.x.J ",
";.j.h.h.h.g.b.h.h.h.k.b.h.h.S.h.h.j.b.k.g.h.v.#.b b <.h.v.z.h.V.h.b.S.h.h.S.b.h.k.S.h.h.b.h.b.h.4.J ",
",.v.h.h.b.j.b.b.b.b.b.v.b.b.S.b.b.v.v.S.d.h.v.#.x U <.h.j.d.j.v.b.b.b.b.S.S.S.b.b.b.b.b.S.v.b.b.v.J ",
",.v.b.b.R.v.v.b.m.m.b.m.m.m.v.v.b.v.v.b.b.b.n.#.Y P ,.b.v.h.m.n.A.m.m.b.m.v.m.m.m.m.m.m.S.v.A.m.0.J ",
"<.g.h.h.V.Y.b.g.b.b.b.h.b.V.b.b.b.b.h.b.h.J.g.#.j T ,.h.v.a.Y.W.b.b.b.b.b.b.b.b.b.b.b.h.b.b.b.b.<.J ",
"<.m.b.b.v.b.b.c.b.b.b.J.b.b.b.b.S.S.j.v.J.k.g.-.n R ;.h.n.g.b.b.b.h.b.b.b.b.b.b.b.b.b.b.b.b.b.b.g.J ",
"v A S F S S S F Z S Z Z S S S S D S Z S S Z S A h x Z Z ! F F F F S S F S S F F S S S S D D F S / s ",
"o $ 1 1 1 1 1 2 1 1 1 1 1 : 1 : : 1 1 7 1 : q q q t f : 0 : : 1 2 2 2 2 2 2 2 2 2 f 7 2 7 2 7 7 $ . ",
"  5 K f e e e k e f c 7 t r f e e e e e e e e e e w e e e w z e j k w h q u K a z z e z z z z e >   ",
"i %.t.Q.r.w.w.e.i.t.*.m 4 b $.Q.e.e.e.e.e.e.e.e.e.e.e.e.e.e.e.e.w.t.u.*.b 0 R ..e.e.e.e.e.e.e.e...p ",
"-.|.XX}.].'.].XXz.XXm.~ k ( g.].]._.oX].`.].].].@X].].].[.].oXoXz.}.XXv.A 9 ] (.].].oXoX].].].].).J ",
",.n.j.j.v.v.v.v.s.b.x._ K } g.j.g.v.j.j.g.v.g.j.j.v.h.v.j.v.j.v.k.a.V.<.A z _ c.v.j.v.v.j.v.v.v.p.J ",
"-.j.j.k.h.h.v.j.S.Y.0._ 7 { v.m.b.k.v.k.v.k.S.v.S.j.k.v.b.v.k.v.n.b.m.3.Q k ` a.k.S.S.j.S.j.S.j.v.G ",
"4.v.k.k.h.g.b.h.b.V.4.] a ( p.S.b.h.h.h.k.S.h.h.k.b.k.h.h.h.k.k.b.l.v.-.S k ` f.k.k.b.h.h.k.h.b.0.J ",
"<.e.4.v.^.^.H.g.k.V.p.H g ` g.S.v.m.v.m.m.m.m.m.m.m.m.m.v.m.m.m.V.l.k.<.! k ` 2.m.m.m.m.m.m.m.m.e.J ",
"<.v.j.k.g.b.A.h.g.A.t.] e ( g.S.k.b.h.b.k.j.h.b.h.h.h.S.h.h.S.h.n.g.j.>.^ q ` a.v.h.h.h.b.h.h.h.0.) ",
"<.j.b.b.v.j.b.b.h.V.<.( 7 [ p.S.A.b.A.b.b.v.A.v.m.m.b.A.b.b.b.v.b.h.Y.3.! q ( g.b.b.W.b.b.b.A.b.e.J ",
",.v.b.b.v.j.v.h.v.Y.4.` z { g.g.h.h.g.g.h.h.h.h.h.g.h.h.g.h.g.b.A.h.b.,.! z ` v.g.h.g.g.j.h.j.j.<.X.",
"<.b.b.l.H.b.J.V.v.V.4.( q { v.j.h.b.b.h.h.h.k.b.h.h.V.g.b.b.h.h.A.h.W.1.W r ` n.h.h.b.h.g.h.h.b.v.+.",
"<.j.g.b.g.b.V.b.g.g.4.( 7 { g.b.v.b.v.v.m.v.v.v.b.v.v.m.v.m.b.b.h.h.A.4.S e ) 4.b.b.b.b.b.W.b.S.0.G ",
"1.n.g.h.k.g.v.j.j.J.g.[ h ` g.h.b.b.m.b.S.v.S.v.v.S.m.S.b.b.v.A.k.d.H.1.H L [ g.m.v.v.n.v.n.n.v.4.O.",
"<.v.b.h.b.b.b.k.v.b.<.H 7 ( 4.v.h.h.h.h.k.k.k.k.k.h.k.k.h.h.h.h.v.k.Y.;.A 7 ( g.h.h.k.k.h.h.k.k.4.o.",
"0.W.Y.W.W.A.A.^.~.^.e.{ z { v.~.F.G.v.m.S.v.S.S.v.v.G.G.m.S.v.S.i.S.).3.! L { n.b.S.J.b.m.b.R.S.4.J ",
"Z ) [ O.) J J J O.o.J E 0 E O.O.[ +.) ) ) ) ) [ O.[ [ +.) ) ) ) @.X.O.H B r S O.) ) ) ) ) J ) J [ d ",
"O > @ = 1 % % ; % ; 6 q e q 1 ; ; ; = : = @ 6 % - % ; ; % 1 % # % ; % 6 q q 7 6 ; ; ; ; ; ; ; ; @ X ",
"  , e k k k k k q q q q e e q 0 7 q q e e e y 0 r 4 7 k q k 7 q q 0 q q e e q q q q 9 q q q q 6 ,   ",
"& ] 7.7.*.5.*.%.8.8.6.8.8.8.8.8.*.*.6.5.%.*. .A q 8 Q | *.%.7.8.8.8.8.8.%.8.6.8.*.8.8.*.8.*.*.8.Q $ ",
"@.~.#XoXoX].$X+XoXoXoXoX].oX].oXoX#X#X].oX#XR.-.j n 1.#X#X{.$XoXoXoXoX].].oX].oX'.oXoXoX#XoXoXoX(.( ",
"<.v.h.d.b.g.b.h.h.b.b.V.k.b.h.h.h.h.h.b.g.A.Q.#.P m 9.Y.h.g.h.v.b.h.b.b.h.S.b.S.V.V.b.J.k.k.V.V.j.o.",
"0.m.b.b.A.m.A.j.b.b.b.b.v.A.A.A.V.S.b.Y.l.b.x.>.I N 9.A.v.V.!.m.Y.A.A.b.Y.A.b.b.b.b.V.b.b.b.b.V.;.G ",
"-.g.k.J.b.b.V.g.v.v.j.j.j.b.S.S.v.j.j.j.h.j.g.#.x v 9.a.h.h.j.g.v.k.v.j.S.v.j.j.b.j.j.j.j.j.b.j.4.J ",
"3.g.j.S.A.b.b.V.b.b.b.b.b.b.b.j.h.v.v.h.h.J.v.-.m v 0.g.S.k.h.b.b.b.b.h.h.b.b.S.b.b.b.b.b.b.b.b.e.G ",
"<.v.b.b.b.j.S.b.b.k.b.v.S.b.v.k.h.b.v.S.h.b.v.$.P U ,.j.A.S.b.v.b.j.b.b.S.h.b.S.b.b.h.v.S.h.v.S.e.O.",
";.v.V.b.b.v.J.b.b.b.b.b.h.S.b.b.k.S.v.S.j.b.v.-.x U <.j.W.k.b.k.b.S.b.b.b.v.S.h.b.b.S.b.b.S.S.h.4.J ",
"<.v.b.b.b.j.S.b.b.h.S.k.k.v.S.v.h.S.v.S.h.S.v.$.P U <.j.W.b.b.v.b.b.b.j.S.j.S.v.h.b.b.b.S.v.v.b.e.o.",
";.v.b.h.b.v.S.b.v.S.b.v.b.b.S.h.h.S.v.S.h.b.v.$.x T <.j.W.b.b.b.S.b.b.b.b.b.b.b.v.S.k.v.b.b.b.k.e.O.",
";.x.V.b.k.v.S.h.b.S.S.b.b.S.h.S.k.b.v.b.h.b.v.-.P U ,.v.W.S.b.j.j.b.b.b.k.b.b.k.b.b.j.S.h.S.h.S.0.o.",
"<.b.b.b.S.v.S.S.v.h.v.S.b.v.v.b.h.b.v.S.j.h.v.$.b Y <.j.W.b.b.S.b.b.j.S.v.b.b.v.b.b.b.b.S.v.h.v.e.o.",
"<.b.W.h.S.v.S.b.k.b.v.h.S.b.k.b.k.b.b.b.h.b.v.,.P T <.j.W.b.b.S.b.b.b.b.b.S.b.b.S.j.h.S.v.S.S.b.e.O.",
"<.b.W.V.S.v.H.b.S.S.S.S.S.S.S.S.S.b.R.b.h.R.v.-.x U ,.j.A.k.b.v.S.S.S.S.S.S.S.S.S.b.S.S.S.S.S.S.e.O.",
"@.,.&.&.=.#.=.$.$.$.$.$.$.$.$.$.&.$.#.$.-.=.&.) $ 3 ( $.$.$.&.$.$.$.$.$.$.#.$.$.$.$.$.#.$.$.=.=.@.A ",
"$ - - - = = - = = = = - = = - = = - = - - - = @     = : & * & & = = = = - - = = - = - - = = = = < o "
};
